<svg xmlns="http://www.w3.org/2000/svg" xmlns:xlink="http://www.w3.org/1999/xlink" width="2000" zoomAndPan="magnify" viewBox="0 0 1500 1499.999933" height="2000" preserveAspectRatio="xMidYMid meet" version="1.0"><defs><g/><clipPath id="6117e5744a"><path d="M 203 1048 L 386 1048 L 386 1227.300781 L 203 1227.300781 Z M 203 1048 " clip-rule="nonzero"/></clipPath><clipPath id="174a358372"><rect x="0" width="503" y="0" height="689"/></clipPath></defs><rect x="-150" width="1800" fill="#ffffff" y="-149.999993" height="1799.99992" fill-opacity="1"/><rect x="-150" width="1800" fill="#fc3c00" y="-149.999993" height="1799.99992" fill-opacity="1"/><path fill="#ffffff" d="M 654.371094 512.390625 L 661.917969 512.628906 C 709.285156 516.113281 727.050781 546.433594 715.222656 603.597656 C 704.824219 604.503906 693.953125 605.933594 682.605469 607.882812 C 677.609375 608.203125 659.273438 612.308594 627.59375 620.207031 C 593.960938 629.941406 573.109375 636.410156 565.042969 639.617188 C 526.03125 652.878906 501.78125 661.699219 492.296875 666.082031 C 458.308594 680.207031 423.308594 698.035156 387.300781 719.558594 C 341.84375 748.082031 314.265625 766.308594 304.566406 774.230469 C 328.269531 716.160156 383.558594 654.3125 470.433594 588.699219 C 541.304688 538.265625 602.621094 512.828125 654.371094 512.390625 M 807.285156 333.589844 L 795.898438 333.917969 C 755.707031 335.957031 708.296875 349.324219 653.65625 374.011719 C 594.390625 402.667969 540.628906 438.996094 492.375 483 C 439.976562 532.554688 387.707031 596.539062 335.5625 674.949219 C 321.148438 697.183594 308.722656 718.417969 298.296875 738.65625 C 290.589844 750.027344 279.425781 778.136719 264.808594 822.996094 C 265.8125 824.832031 267.925781 824.804688 271.144531 822.902344 C 289.53125 807.285156 319.84375 787.871094 362.078125 764.660156 C 400.789062 745.960938 433.597656 731.769531 460.503906 722.085938 C 511.394531 703.183594 565.589844 695.039062 623.078125 697.65625 C 641.945312 700.625 658.503906 704.488281 672.753906 709.242188 L 692.398438 717.042969 C 704.339844 722.6875 713.972656 729.226562 721.300781 736.652344 C 735.953125 751.511719 741.375 769.9375 737.566406 791.929688 C 733.648438 802.007812 728.035156 810.964844 720.726562 818.804688 L 708.488281 829.71875 C 699.484375 836.4375 688.777344 842.035156 676.378906 846.515625 C 654.035156 855.488281 619.992188 859.953125 574.246094 859.910156 C 660.476562 884.597656 729.152344 895.65625 780.269531 893.082031 C 822.125 892.496094 856.527344 881.953125 883.480469 861.464844 C 916.46875 835.203125 932.582031 801.90625 931.824219 761.578125 C 931.574219 748.132812 929.449219 733.90625 925.449219 718.902344 C 912.042969 691.066406 894.980469 668.179688 874.265625 650.242188 C 840.070312 623.003906 803.898438 607.566406 765.746094 603.921875 C 857.457031 527.84375 904.558594 465.804688 907.046875 417.804688 C 908.820312 397.160156 898.703125 375.96875 876.703125 354.226562 C 869.886719 348.726562 862.09375 344.320312 853.324219 341.019531 C 829.699219 334.691406 814.351562 332.214844 807.285156 333.589844 Z M 807.285156 333.589844 " fill-opacity="0.996" fill-rule="nonzero"/><path fill="#ffffff" d="M 372.214844 830.261719 L 368.992188 830.292969 C 357.183594 830.398438 345.480469 832.199219 333.871094 835.695312 C 331.722656 836.539062 329.515625 837.558594 327.257812 838.746094 L 302.542969 852.746094 L 291.425781 860.339844 C 267.523438 878.253906 252.117188 901.167969 245.207031 929.089844 C 245.667969 929.644531 247.082031 929.804688 249.453125 929.566406 C 268.253906 925.363281 284.632812 922.769531 298.59375 921.789062 C 314.125 920.601562 330.105469 920.890625 346.542969 922.652344 C 362.921875 924.214844 381.535156 927.9375 402.386719 933.828125 C 410.5625 936.347656 418.164062 939.058594 425.1875 941.957031 C 430.78125 944.023438 438.667969 947.945312 448.855469 953.722656 C 449.460938 953.996094 450.1875 954.148438 451.039062 954.183594 C 453.78125 953.867188 456.21875 951.742188 458.347656 947.804688 C 458.4375 948.484375 461.699219 941.613281 468.128906 927.191406 C 473.246094 915.125 480 896.992188 488.390625 872.789062 L 493.171875 858.878906 C 493.3125 858.015625 493.148438 857.167969 492.671875 856.332031 C 491.25 853.828125 487.050781 851.449219 480.070312 849.191406 C 456.09375 842.726562 442.210938 839.222656 438.425781 838.675781 C 412.5625 833.066406 390.492188 830.261719 372.214844 830.261719 Z M 372.214844 830.261719 " fill-opacity="0.996" fill-rule="nonzero"/><path fill="#ffffff" d="M 325.039062 945.171875 L 323.867188 945.171875 C 292.339844 945.1875 271.300781 949.941406 260.75 959.433594 C 241.179688 974.175781 228.101562 996.589844 221.511719 1026.675781 C 222.027344 1027.554688 222.980469 1027.992188 224.367188 1027.992188 C 241.4375 1026.347656 258.96875 1026.15625 276.960938 1027.421875 C 291.855469 1028.457031 307.230469 1030.996094 323.089844 1035.039062 C 333.894531 1037.664062 347.035156 1042.550781 362.515625 1049.703125 C 369.386719 1052.613281 382.070312 1060.847656 400.566406 1074.410156 C 401.492188 1074.960938 402.390625 1075.238281 403.265625 1075.238281 C 411.871094 1070.320312 420.890625 1057.390625 430.324219 1036.453125 C 437.449219 1020.535156 443.730469 1004.914062 449.164062 989.582031 C 450.65625 983.902344 450.457031 979.359375 448.5625 975.949219 C 447.617188 974.246094 446.246094 972.828125 444.449219 971.691406 C 434.484375 966.53125 426.601562 962.769531 420.800781 960.410156 C 417.304688 958.472656 407.265625 955.109375 390.691406 950.316406 C 384.117188 948.6875 377.613281 947.460938 371.1875 946.648438 L 361.609375 945.730469 Z M 325.039062 945.171875 " fill-opacity="0.996" fill-rule="nonzero"/><g clip-path="url(#6117e5744a)"><path fill="#ffffff" d="M 233.828125 1048.773438 L 232.339844 1048.800781 C 227.175781 1048.414062 224.628906 1050.503906 224.695312 1055.066406 C 227.851562 1079.601562 229.515625 1095.273438 229.6875 1102.082031 C 230.128906 1115.894531 229.457031 1127.378906 227.667969 1136.539062 C 224.125 1156.792969 216.039062 1185.996094 203.410156 1224.148438 C 202.921875 1225.980469 203.246094 1227.019531 204.382812 1227.261719 C 248.414062 1209.007812 284.6875 1190.246094 313.195312 1170.976562 L 333.253906 1156.421875 L 350.492188 1141.667969 L 364.90625 1126.714844 L 376.496094 1111.566406 L 385.261719 1096.21875 C 386.4375 1091.34375 380.585938 1084.96875 367.703125 1077.097656 C 358.703125 1071.328125 345.386719 1065.492188 327.761719 1059.59375 C 321.171875 1057.363281 312.261719 1055.4375 301.027344 1053.8125 C 278.257812 1050.855469 255.859375 1049.175781 233.828125 1048.773438 Z M 233.828125 1048.773438 " fill-opacity="0.996" fill-rule="nonzero"/></g><path fill="#ffffff" d="M 290.519531 412.863281 L 285.148438 413.015625 C 283.4375 412.863281 277.832031 413.632812 268.332031 415.332031 C 260.625 416.976562 252.601562 419.449219 244.269531 422.742188 L 219 433.296875 C 212.886719 436.539062 206.933594 440.375 201.140625 444.8125 C 195.351562 449.246094 189.722656 454.28125 184.257812 459.914062 C 170.878906 475.039062 163.046875 484.832031 160.761719 489.292969 C 155.769531 497.054688 151.527344 505.460938 148.042969 514.507812 L 143.378906 528.566406 C 140.648438 538.261719 138.671875 548.601562 137.445312 559.585938 L 136.175781 576.542969 C 135.527344 603.816406 137.308594 625.628906 141.515625 641.980469 C 145.367188 652.976562 151.996094 661.226562 161.394531 666.726562 C 169.597656 672.242188 182.972656 674.972656 201.515625 674.921875 C 235.992188 673.113281 271.34375 659.714844 307.574219 634.722656 L 321.488281 624.796875 C 329.765625 617.761719 337.164062 610.625 343.679688 603.382812 C 356.707031 588.902344 366.207031 574.007812 372.179688 558.703125 C 384.027344 526.582031 381.824219 495.28125 365.570312 464.796875 C 357.527344 450.246094 346.050781 436.59375 331.140625 423.839844 C 325.742188 420.585938 320.070312 418.058594 314.121094 416.25 C 303.519531 413.585938 295.652344 412.453125 290.519531 412.863281 Z M 290.519531 412.863281 " fill-opacity="0.996" fill-rule="nonzero"/><path fill="#ffffff" d="M 212.210938 452.953125 C 182.273438 405.476562 153.851562 369.804688 126.949219 345.933594 C 115.386719 335.859375 104.007812 327.726562 92.816406 321.542969 C 85.195312 316.714844 67.464844 309.414062 39.621094 299.640625 C 34.472656 297.414062 30.363281 294.589844 27.292969 291.175781 C 22.382812 284.589844 22.996094 279.824219 29.132812 276.875 C 37.328125 274.351562 47.386719 274.902344 59.308594 278.53125 C 133.421875 300.277344 187.644531 359.367188 221.984375 455.796875 Z M 212.210938 452.953125 " fill-opacity="0.996" fill-rule="nonzero"/><path fill="#ffffff" d="M 185.679688 474.304688 C 165.714844 452.742188 147.355469 438.488281 130.605469 431.539062 C 120.835938 427.09375 111.074219 423.457031 101.3125 420.621094 C 91.492188 417.566406 73.972656 414.1875 48.757812 410.480469 C 43.601562 409.316406 40.0625 407.8125 38.148438 405.964844 C 32.476562 397.964844 36.933594 392.957031 51.519531 390.933594 C 64.75 390.40625 81.265625 393.976562 101.066406 401.652344 C 142.757812 419.015625 174.199219 444.511719 195.390625 478.148438 Z M 185.679688 474.304688 " fill-opacity="0.996" fill-rule="nonzero"/><g transform="matrix(1, 0, 0, 1, 912, 235)"><g clip-path="url(#174a358372)"><g fill="#ffffff" fill-opacity="1"><g transform="translate(2.367827, 468.307215)"><g><path d="M 114.84375 -101.265625 C 105.457031 -101.265625 92.890625 -101.6875 77.140625 -102.53125 C 80.660156 -78.070312 88.492188 -60.1875 100.640625 -48.875 C 112.785156 -37.5625 127.820312 -31.90625 145.75 -31.90625 C 154.957031 -31.90625 164.546875 -34.289062 174.515625 -39.0625 C 184.484375 -43.84375 191.816406 -50.757812 196.515625 -59.8125 C 213.429688 -50.757812 221.890625 -41.125 221.890625 -30.90625 C 221.890625 -19.175781 213.804688 -10.253906 197.640625 -4.140625 C 181.472656 1.972656 163.421875 5.03125 143.484375 5.03125 C 111.316406 5.03125 82.625 -5.5625 57.40625 -26.75 C 32.195312 -47.945312 19.59375 -78.648438 19.59375 -118.859375 C 19.59375 -161.078125 31.695312 -193.410156 55.90625 -215.859375 C 80.113281 -238.304688 108.632812 -249.53125 141.46875 -249.53125 C 167.9375 -249.53125 189.296875 -242.328125 205.546875 -227.921875 C 221.804688 -213.515625 229.9375 -196.34375 229.9375 -176.40625 C 229.9375 -160.320312 226.960938 -147.046875 221.015625 -136.578125 C 215.066406 -126.109375 206.269531 -118.484375 194.625 -113.703125 C 182.976562 -108.929688 171.125 -105.664062 159.0625 -103.90625 C 147 -102.144531 132.257812 -101.265625 114.84375 -101.265625 Z M 136.953125 -212.09375 C 120.867188 -212.09375 107.128906 -205.890625 95.734375 -193.484375 C 84.347656 -181.085938 77.648438 -161.570312 75.640625 -134.9375 C 97.585938 -134.9375 113.753906 -135.441406 124.140625 -136.453125 C 157.304688 -140.472656 173.890625 -153.457031 173.890625 -175.40625 C 173.890625 -185.457031 170.367188 -194.082031 163.328125 -201.28125 C 156.296875 -208.488281 147.503906 -212.09375 136.953125 -212.09375 Z M 136.953125 -212.09375 "/></g></g></g><g fill="#ffffff" fill-opacity="1"><g transform="translate(251.87938, 468.307215)"><g><path d="M 114.84375 -101.265625 C 105.457031 -101.265625 92.890625 -101.6875 77.140625 -102.53125 C 80.660156 -78.070312 88.492188 -60.1875 100.640625 -48.875 C 112.785156 -37.5625 127.820312 -31.90625 145.75 -31.90625 C 154.957031 -31.90625 164.546875 -34.289062 174.515625 -39.0625 C 184.484375 -43.84375 191.816406 -50.757812 196.515625 -59.8125 C 213.429688 -50.757812 221.890625 -41.125 221.890625 -30.90625 C 221.890625 -19.175781 213.804688 -10.253906 197.640625 -4.140625 C 181.472656 1.972656 163.421875 5.03125 143.484375 5.03125 C 111.316406 5.03125 82.625 -5.5625 57.40625 -26.75 C 32.195312 -47.945312 19.59375 -78.648438 19.59375 -118.859375 C 19.59375 -161.078125 31.695312 -193.410156 55.90625 -215.859375 C 80.113281 -238.304688 108.632812 -249.53125 141.46875 -249.53125 C 167.9375 -249.53125 189.296875 -242.328125 205.546875 -227.921875 C 221.804688 -213.515625 229.9375 -196.34375 229.9375 -176.40625 C 229.9375 -160.320312 226.960938 -147.046875 221.015625 -136.578125 C 215.066406 -126.109375 206.269531 -118.484375 194.625 -113.703125 C 182.976562 -108.929688 171.125 -105.664062 159.0625 -103.90625 C 147 -102.144531 132.257812 -101.265625 114.84375 -101.265625 Z M 136.953125 -212.09375 C 120.867188 -212.09375 107.128906 -205.890625 95.734375 -193.484375 C 84.347656 -181.085938 77.648438 -161.570312 75.640625 -134.9375 C 97.585938 -134.9375 113.753906 -135.441406 124.140625 -136.453125 C 157.304688 -140.472656 173.890625 -153.457031 173.890625 -175.40625 C 173.890625 -185.457031 170.367188 -194.082031 163.328125 -201.28125 C 156.296875 -208.488281 147.503906 -212.09375 136.953125 -212.09375 Z M 136.953125 -212.09375 "/></g></g></g></g></g></svg>