<svg xmlns="http://www.w3.org/2000/svg" xmlns:xlink="http://www.w3.org/1999/xlink" width="2000" zoomAndPan="magnify" viewBox="0 0 1500 1499.999933" height="2000" preserveAspectRatio="xMidYMid meet" version="1.0"><defs><clipPath id="64c5bb0ecf"><path d="M 196.5 323 L 606 323 L 606 889 L 196.5 889 Z M 196.5 323 " clip-rule="nonzero"/></clipPath><clipPath id="e96b41c96b"><path d="M 955 37.042969 L 1147 37.042969 L 1147 251 L 955 251 Z M 955 37.042969 " clip-rule="nonzero"/></clipPath><clipPath id="e44d2ee699"><path d="M 437 619 L 1367.25 619 L 1367.25 1169 L 437 1169 Z M 437 619 " clip-rule="nonzero"/></clipPath><clipPath id="4b6c61059a"><path d="M 318 973 L 813 973 L 813 1462.792969 L 318 1462.792969 Z M 318 973 " clip-rule="nonzero"/></clipPath></defs><path fill="#fdc32f" d="M 1207.59375 671.140625 C 1243.066406 602.058594 1240.5 519.117188 1216.484375 442.28125 C 1216.484375 432.296875 1207.839844 417.839844 1203.804688 408.816406 C 1198.8125 397.667969 1193.15625 386.808594 1186.886719 376.320312 C 1174.566406 355.683594 1159.894531 336.460938 1143.289062 319.089844 C 1120.636719 295.390625 1094.375 275.117188 1065.59375 259.40625 C 1051.242188 251.570312 1036.261719 244.875 1020.824219 239.460938 C 1004.722656 233.816406 988.671875 233.039062 972.234375 228.703125 C 966.4375 227.175781 960.574219 225.78125 954.667969 224.523438 C 930.929688 219.492188 906.46875 216.757812 882.328125 216.820312 C 867.027344 216.855469 851.742188 217.898438 836.519531 219.457031 C 823.683594 220.769531 810.292969 221.054688 798.394531 225.738281 C 785.523438 230.804688 771.921875 232.738281 758.449219 235.4375 C 747.277344 237.675781 735.320312 242.785156 724.835938 247.347656 C 643.800781 282.609375 586.539062 348.386719 549.835938 426.347656 C 547.703125 427.792969 545.65625 429.324219 543.929688 431.152344 C 542.273438 432.914062 540.765625 434.632812 540.183594 436.601562 C 518.816406 509.535156 527.113281 599.105469 557.820312 667.601562 C 568.5625 691.566406 585.410156 723.574219 605.679688 739.253906 C 603.660156 746.894531 604.210938 748.273438 612.117188 745.15625 C 612.976562 750 614.011719 755.257812 617.398438 759.003906 C 659.515625 805.65625 747.722656 839.980469 808.847656 850.773438 C 873.78125 862.246094 981.589844 859.523438 1042.226562 833.167969 C 1046.796875 831.183594 1049.886719 826.921875 1052.648438 822.929688 C 1117.078125 796.097656 1169.328125 745.65625 1201.195312 683.59375 C 1195.585938 680.113281 1188.234375 681.121094 1179.128906 686.625 C 1085.171875 696.042969 1126.652344 555.820312 1201.417969 615.738281 L 1201.148438 667.511719 L 1207.59375 671.136719 Z M 1207.59375 671.140625 " fill-opacity="1" fill-rule="nonzero"/><path fill="#fdc32f" d="M 935.996094 1147.488281 C 931.898438 1149.210938 927.734375 1150.789062 923.519531 1152.210938 C 915.167969 1155.023438 897.28125 1157.246094 889.023438 1160.050781 C 877.96875 1163.800781 876.652344 1156.414062 865.425781 1158.007812 C 860 1158.777344 849.082031 1154.84375 843.421875 1155.324219 C 826.289062 1156.796875 827.226562 1154.363281 810.15625 1152.105469 C 790.027344 1149.441406 768.355469 1153.304688 748.449219 1147.8125 C 730.394531 1142.832031 705.144531 1130.824219 687.816406 1123.664062 C 686.628906 1120.835938 662.730469 1128.914062 662.058594 1131.714844 C 639.085938 1143.792969 641.640625 1157.398438 617.75 1142.574219 C 595.003906 1124.394531 575.101562 1103.003906 558.050781 1078.402344 C 497.851562 1029.390625 445.789062 964.375 443.65625 884.09375 L 437.921875 877.019531 L 432.085938 880.640625 C 411.148438 908.390625 400.535156 940.347656 393.347656 973.523438 C 405.347656 1051.6875 445.664062 1111.84375 510.570312 1162.527344 C 592.476562 1226.480469 692.488281 1259.851562 796.792969 1251.804688 C 802.199219 1251.390625 809.375 1247.269531 811.535156 1252.636719 C 870.632812 1234.640625 922.070312 1195.238281 956.519531 1145.210938 L 948.214844 1141.828125 C 946.726562 1141.222656 937.835938 1146.71875 936 1147.492188 Z M 935.996094 1147.488281 " fill-opacity="1" fill-rule="nonzero"/><path fill="#fdc32f" d="M 1024.316406 909.179688 C 1025.835938 919.695312 1018.613281 927.171875 1007.683594 932.058594 C 964.65625 951.289062 917.410156 956.011719 869.367188 954.660156 C 815.25 953.144531 699.894531 928.027344 663.332031 890.261719 L 656.324219 886.324219 C 641.136719 905.609375 626.09375 931.417969 622.5625 958.082031 C 620.722656 971.984375 617.722656 999.636719 635.476562 997.546875 C 696.0625 1039.394531 770.808594 1058.871094 843.820312 1061.203125 C 853.117188 1061.5 862.421875 1061.507812 871.714844 1061.222656 C 880.949219 1060.941406 888.910156 1062.613281 898.082031 1063.300781 C 922.386719 1065.125 949.066406 1062.003906 972.191406 1054.535156 C 980.992188 1051.691406 1014.136719 1041.777344 1010.914062 1027.984375 C 1018.96875 988.972656 1033.242188 949.128906 1024.3125 909.179688 Z M 1024.316406 909.179688 " fill-opacity="1" fill-rule="nonzero"/><path fill="#fdc32f" d="M 607.484375 837.988281 C 589.867188 813.652344 579.65625 784.492188 589.601562 757.992188 C 590.851562 756.839844 590.898438 755.761719 589.601562 754.777344 C 567.148438 761.398438 545.820312 773.441406 529.746094 790.464844 L 519.183594 819.855469 C 508.117188 850.621094 530.535156 886.304688 548.554688 912.695312 C 563.730469 882.917969 584.265625 861.238281 607.484375 837.988281 Z M 607.484375 837.988281 " fill-opacity="1" fill-rule="nonzero"/><g clip-path="url(#64c5bb0ecf)"><path fill="#f8e3b0" d="M 549.832031 426.355469 C 534 477.9375 530.335938 530.621094 540.132812 585.136719 C 545.523438 615.148438 553.296875 644.457031 567.019531 671.800781 C 578.101562 693.882812 602.945312 716.023438 605.484375 741.550781 C 607.132812 758.128906 587.875 757.101562 575.554688 764.4375 C 557.65625 775.097656 542.457031 789.757812 524.230469 799.910156 C 513.519531 805.878906 505.035156 815.375 494.933594 822.335938 C 471.195312 838.695312 460.242188 869.886719 429.855469 875.894531 C 390.019531 883.761719 351.730469 892.136719 310.714844 886.328125 C 264.707031 879.816406 223.410156 854.40625 205.078125 811.625 C 189.515625 775.304688 195.257812 734.304688 221.089844 704.84375 C 249.828125 672.066406 291.757812 657.042969 334.039062 657.628906 C 331.40625 646.246094 322.148438 641.511719 314.9375 633.570312 C 243.710938 555.089844 226.613281 422.175781 310.742188 355.054688 C 361.847656 314.285156 427.125 314.421875 480.519531 348.53125 C 511.488281 368.316406 532.351562 395.484375 549.828125 426.339844 Z M 549.832031 426.355469 " fill-opacity="1" fill-rule="nonzero"/></g><path fill="#523a19" d="M 793.484375 224.878906 C 792.664062 241.109375 803.382812 263 785.226562 270.035156 C 779.855469 272.113281 768.917969 272.800781 765.203125 264.539062 C 761.214844 255.675781 758.453125 246.273438 756.316406 237.863281 C 749.015625 209.179688 720.714844 140.515625 693.46875 133.601562 C 677.914062 154.976562 654.15625 157.652344 630.253906 154.894531 C 608.613281 152.390625 589.816406 138.429688 584.121094 118.097656 C 578.441406 97.820312 587.796875 75.066406 607.191406 64.742188 C 649.339844 42.3125 703.027344 67.441406 733.347656 99.632812 C 766.558594 134.878906 783.148438 179.375 793.488281 224.886719 Z M 793.484375 224.878906 " fill-opacity="1" fill-rule="nonzero"/><g clip-path="url(#e96b41c96b)"><path fill="#523a19" d="M 991.429688 230.855469 C 990.765625 237.777344 985.792969 245.527344 980.730469 247.980469 C 975.023438 250.746094 960.746094 251.515625 957.773438 245.847656 C 953.847656 238.359375 957.050781 230.207031 955.324219 221.398438 C 960.1875 160.949219 995.425781 70.304688 1054.925781 44.417969 C 1080.804688 33.164062 1110.800781 34.417969 1131.484375 51.507812 C 1147.855469 65.035156 1149.292969 87.132812 1141.398438 104.5625 C 1127.324219 135.632812 1086.363281 137.9375 1057.097656 120.332031 C 1047.875 114.785156 1036.242188 119.023438 1030.59375 127.859375 C 1010.757812 158.898438 995.148438 192.128906 991.429688 230.855469 Z M 991.429688 230.855469 " fill-opacity="1" fill-rule="nonzero"/></g><path fill="#f59125" d="M 1207.671875 671.160156 C 1206.039062 676.128906 1203.722656 682.082031 1201.195312 683.597656 C 1183.128906 694.449219 1161.804688 700.835938 1141.714844 687.875 C 1117.601562 672.320312 1109.425781 634.933594 1128.84375 612.769531 C 1143.410156 596.136719 1169.726562 589.53125 1190.105469 598.710938 C 1206.070312 605.902344 1212.566406 623.613281 1213.066406 640.078125 C 1213.324219 648.589844 1212.097656 657.121094 1209.519531 665.234375 C 1209.101562 666.558594 1208.464844 668.742188 1207.667969 671.164062 Z M 1207.671875 671.160156 " fill-opacity="1" fill-rule="nonzero"/><path fill="#f59024" d="M 749.265625 652.4375 C 745.316406 684.085938 712.464844 697.164062 686.816406 693.664062 C 652.765625 689.023438 630.84375 662.429688 635.4375 631.363281 C 640.265625 598.742188 670.472656 576.695312 706.042969 585.679688 C 731.054688 591.996094 752.847656 623.714844 749.265625 652.433594 Z M 749.265625 652.4375 " fill-opacity="1" fill-rule="nonzero"/><path fill="#eece87" d="M 605.6875 739.257812 C 608.535156 738.726562 610.527344 743.601562 612.121094 745.160156 C 609.527344 749.335938 604.023438 748.769531 599.824219 750.722656 C 587.15625 750.570312 582.835938 742.242188 574.628906 734.800781 C 545.277344 708.179688 523.972656 678.167969 501.953125 646.472656 L 459.515625 585.398438 C 440.613281 558.195312 415.796875 537.578125 398.5 507.367188 C 432.0625 523.824219 479.070312 587.277344 499.253906 616.742188 L 533.140625 666.210938 C 548.535156 688.679688 563.890625 709.488281 584.421875 728.328125 C 591.140625 734.492188 595 741.394531 605.691406 739.253906 Z M 605.6875 739.257812 " fill-opacity="1" fill-rule="nonzero"/><path fill="#eece87" d="M 523.296875 781.296875 C 524.679688 779.988281 527.152344 781.167969 528.457031 781.175781 C 528.261719 783.851562 525.136719 785.753906 523.433594 788.15625 C 516.570312 792.984375 511.851562 791.316406 505.292969 791.503906 C 481.839844 792.175781 461.738281 788.375 440.777344 784.179688 L 400.378906 776.09375 C 382.386719 772.492188 363.097656 773.820312 345.101562 768.394531 C 367.902344 762.027344 411.445312 769.300781 430.78125 773.308594 L 463.242188 780.042969 C 477.988281 783.101562 492.234375 785.507812 508.703125 785.128906 C 514.089844 785.003906 518.152344 786.28125 523.292969 781.292969 Z M 523.296875 781.296875 " fill-opacity="1" fill-rule="nonzero"/><g clip-path="url(#e44d2ee699)"><path fill="#654820" d="M 1356.191406 637.855469 C 1346.238281 626.648438 1333.476562 618.121094 1318.015625 619.566406 C 1306.65625 620.625 1287.777344 626.953125 1284.375 640.824219 C 1280.472656 656.695312 1272.335938 659.671875 1260.398438 667.257812 C 1232.664062 684.882812 1279.316406 725.742188 1157.882812 798.992188 C 1133.484375 813.707031 1106.890625 817.515625 1078.871094 823.011719 C 1069.332031 824.878906 1059.636719 825.679688 1052.648438 822.9375 C 902.777344 874.8125 727.445312 858.488281 612.117188 745.160156 C 602.519531 735.730469 592.269531 753.839844 587.28125 758.574219 C 582.535156 763.085938 579.855469 764.84375 578.996094 772.039062 C 578.3125 777.765625 579.21875 783.625 579.863281 789.316406 C 581.855469 806.792969 589.820312 823.027344 599.222656 837.558594 C 579.203125 855.738281 563.132812 877.464844 547.226562 899.140625 C 523.25 865.648438 514.574219 833.398438 534.65625 795.839844 L 529.75 790.460938 C 513.132812 794.109375 438.421875 860.554688 437.917969 877.007812 C 433.273438 910.289062 447.425781 942.203125 460.777344 973.269531 C 480.328125 1018.765625 515.164062 1047.820312 550.796875 1080.214844 C 566.957031 1094.90625 603.917969 1163.632812 651.28125 1157.601562 C 663.316406 1156.070312 676.46875 1151.496094 680.273438 1139.539062 C 681.167969 1139.726562 682.207031 1139.457031 683.078125 1139.726562 C 699.238281 1144.714844 714.355469 1152.402344 730.875 1156.753906 C 746.882812 1160.96875 763.230469 1163.824219 779.703125 1165.46875 C 810.882812 1168.582031 844.539062 1168.878906 875.792969 1166.613281 C 888.800781 1165.664062 901.097656 1165.773438 914.027344 1162.011719 C 928.675781 1157.75 942.558594 1151.277344 956.519531 1145.207031 C 981.515625 1108.910156 1001.925781 1071.566406 1010.925781 1027.976562 C 1005.351562 1034.28125 998.144531 1038.617188 988.878906 1041.484375 L 949.839844 1053.546875 C 938.402344 1057.078125 925.660156 1057.253906 913.898438 1058.488281 C 900.082031 1059.933594 885.800781 1059.667969 871.925781 1059.546875 C 844.449219 1059.3125 817.011719 1057.183594 789.792969 1053.410156 C 737.945312 1046.21875 671.703125 1024.15625 629.507812 990.738281 C 625.6875 971.308594 628.859375 951.527344 636.089844 933.269531 C 641.25 920.246094 649.101562 894.171875 668.03125 902.257812 C 674.480469 905.011719 680.492188 909.71875 686.679688 913.082031 C 699.59375 920.101562 712.988281 926.238281 726.671875 931.613281 C 755.578125 942.972656 785.804688 950.992188 816.449219 955.945312 C 880.367188 966.265625 950.367188 964.683594 1010.320312 937.921875 C 1024.402344 931.636719 1026.164062 924.15625 1024.324219 909.179688 C 1024.113281 907.742188 1023.808594 905.824219 1024.160156 904.476562 C 1024.539062 903.039062 1027.648438 901.386719 1030.242188 902.042969 C 1055.460938 908.425781 1078.796875 906.339844 1104.433594 902.96875 C 1191.761719 891.488281 1269.191406 846.820312 1323.464844 778.355469 C 1346 749.929688 1360.238281 720.78125 1365.914062 684.738281 C 1368.542969 668.0625 1368.261719 651.425781 1356.199219 637.855469 Z M 1356.191406 637.855469 " fill-opacity="1" fill-rule="nonzero"/></g><g clip-path="url(#4b6c61059a)"><path fill="#654820" d="M 807.445312 1243.597656 C 638.65625 1263.570312 438.578125 1158.128906 401.671875 983.882812 L 393.34375 973.515625 C 384.339844 1015.074219 379.109375 1056.78125 392.804688 1100.695312 C 376.238281 1111.632812 319.558594 1130.164062 318.78125 1148.90625 C 318.421875 1157.636719 321.414062 1164.199219 330.019531 1168.875 C 358.703125 1184.460938 392.199219 1187.121094 423.335938 1177.023438 C 433.890625 1173.597656 439.007812 1178.792969 444.929688 1185.949219 C 457.753906 1201.457031 473.664062 1212.828125 490.679688 1225.582031 C 460.332031 1314.949219 387.160156 1289.816406 384.667969 1344.207031 C 383.042969 1379.628906 396.933594 1440.179688 441.285156 1445.261719 C 457.117188 1447.074219 474.867188 1439.484375 483.597656 1423.863281 C 493.507812 1406.121094 492.082031 1384.527344 485.96875 1365.96875 C 485.289062 1356.535156 494.886719 1357.804688 499.785156 1353.679688 C 529.316406 1328.792969 547.917969 1295.617188 559.703125 1257.421875 C 611.671875 1279.992188 663.109375 1286.273438 718.6875 1279.328125 C 709.929688 1301.113281 696.9375 1319.941406 679.390625 1333.5625 C 668.59375 1341.941406 655.121094 1348.789062 652.003906 1364.324219 C 645.070312 1398.960938 660.972656 1437.441406 691.074219 1456.496094 C 710.703125 1468.917969 739.5 1462.347656 747.507812 1441.175781 C 755.527344 1419.964844 750.433594 1397.234375 747.640625 1374.75 C 763.265625 1361.867188 775.84375 1346.535156 781.882812 1326.148438 C 787.496094 1307.210938 794.058594 1288.636719 797.726562 1269.148438 C 799.570312 1259.351562 803.402344 1255.109375 811.53125 1252.628906 C 813.660156 1247.464844 812.878906 1243.636719 807.445312 1243.59375 Z M 807.445312 1243.597656 " fill-opacity="1" fill-rule="nonzero"/></g><path fill="#654820" d="M 934.625 715.03125 C 985.203125 722.457031 1044.757812 669.8125 1021.863281 639.457031 C 1010.320312 624.152344 981.933594 655.742188 955.707031 657.144531 C 916.441406 659.25 892.351562 623.371094 875.75 637.238281 C 856.371094 653.414062 883.027344 707.453125 934.628906 715.03125 Z M 934.625 715.03125 " fill-opacity="1" fill-rule="nonzero"/><path fill="#654820" d="M 1054.277344 587.699219 C 1066.496094 587.835938 1069.589844 559.6875 1079.8125 556.257812 C 1108.105469 546.753906 1106.480469 593.101562 1119.222656 595.886719 C 1135.464844 599.429688 1141.800781 557.578125 1117.546875 532.441406 C 1103.113281 517.480469 1080.160156 515.710938 1064.078125 526.492188 C 1048.632812 536.851562 1040.339844 554.617188 1043.027344 574.75 C 1043.996094 582.039062 1047.148438 587.617188 1054.277344 587.695312 Z M 1054.277344 587.699219 " fill-opacity="1" fill-rule="nonzero"/><path fill="#654820" d="M 760.378906 598.851562 C 774.320312 605.480469 777.894531 556.585938 801.839844 566.347656 C 816.261719 572.222656 816.796875 602.839844 835.121094 596.78125 C 841.417969 594.695312 843.738281 588.789062 843.972656 580.945312 C 844.667969 557.816406 828.558594 539.023438 808.699219 533.792969 C 786.664062 527.996094 765.546875 537.746094 756.234375 558.355469 C 750.398438 571.277344 745.492188 591.769531 760.378906 598.851562 Z M 760.378906 598.851562 " fill-opacity="1" fill-rule="nonzero"/><path fill="#654820" d="M 589.605469 757.992188 C 589.957031 757.050781 589.378906 755.761719 589.605469 754.777344 C 590.570312 754.488281 591.808594 754.738281 592.820312 754.777344 C 591.867188 755.960938 590.789062 757.039062 589.605469 757.992188 Z M 589.605469 757.992188 " fill-opacity="1" fill-rule="nonzero"/><path fill="#523a19" d="M 622.625 841.9375 C 637.777344 834.363281 666.664062 827.277344 669.347656 881.273438 C 669.847656 891.394531 666.535156 901.3125 660.195312 909.210938 C 647.417969 925.136719 626.691406 962.289062 635.699219 1029.238281 C 637.347656 1041.503906 644.558594 1052.453125 655.277344 1058.632812 C 673.617188 1069.199219 700.234375 1092.636719 689.953125 1136.640625 C 687.210938 1148.359375 679.835938 1158.691406 669.039062 1164 C 651.925781 1172.414062 622.226562 1172.34375 580.761719 1119.25 C 580.761719 1119.25 494.125 1003.96875 608.953125 853.269531 C 612.585938 848.507812 617.265625 844.609375 622.625 841.933594 Z M 622.625 841.9375 " fill-opacity="1" fill-rule="nonzero"/></svg>