<svg xmlns="http://www.w3.org/2000/svg" xmlns:xlink="http://www.w3.org/1999/xlink" width="2400" zoomAndPan="magnify" viewBox="0 0 1800 929.999989" height="1240" preserveAspectRatio="xMidYMid meet" version="1.0"><defs><g/><clipPath id="786be18220"><path d="M 191 744 L 360 744 L 360 909.34375 L 191 909.34375 Z M 191 744 " clip-rule="nonzero"/></clipPath><clipPath id="8c19a850ca"><rect x="0" width="1252" y="0" height="271"/></clipPath></defs><path fill="#fc3c00" d="M 607.667969 249.421875 L 614.628906 249.644531 C 658.339844 252.855469 674.738281 280.839844 663.820312 333.589844 C 654.226562 334.429688 644.195312 335.746094 633.722656 337.542969 C 629.113281 337.839844 612.1875 341.628906 582.953125 348.917969 C 551.917969 357.898438 532.675781 363.871094 525.234375 366.832031 C 489.230469 379.066406 466.855469 387.207031 458.101562 391.25 C 426.738281 404.289062 394.441406 420.738281 361.207031 440.601562 C 319.261719 466.925781 293.8125 483.742188 284.863281 491.054688 C 306.734375 437.464844 357.753906 380.394531 437.925781 319.839844 C 503.328125 273.300781 559.910156 249.828125 607.667969 249.421875 M 748.777344 84.421875 L 738.269531 84.726562 C 701.183594 86.609375 657.429688 98.941406 607.007812 121.726562 C 552.3125 148.167969 502.703125 181.691406 458.171875 222.300781 C 409.820312 268.03125 361.582031 327.074219 313.464844 399.433594 C 300.160156 419.953125 288.699219 439.550781 279.074219 458.226562 C 271.964844 468.71875 261.660156 494.660156 248.171875 536.054688 C 249.097656 537.75 251.046875 537.722656 254.015625 535.96875 C 270.984375 521.554688 298.957031 503.640625 337.933594 482.222656 C 373.65625 464.964844 403.933594 451.867188 428.761719 442.933594 C 475.726562 425.488281 525.734375 417.976562 578.789062 420.390625 C 596.199219 423.128906 611.480469 426.695312 624.628906 431.082031 L 642.757812 438.277344 C 653.777344 443.488281 662.667969 449.519531 669.429688 456.378906 C 682.953125 470.089844 687.957031 487.089844 684.441406 507.386719 C 680.828125 516.6875 675.648438 524.953125 668.902344 532.1875 L 657.609375 542.261719 C 649.296875 548.460938 639.417969 553.625 627.976562 557.757812 C 607.355469 566.039062 575.9375 570.160156 533.726562 570.121094 C 613.300781 592.902344 676.675781 603.105469 723.847656 600.730469 C 762.472656 600.1875 794.21875 590.464844 819.089844 571.554688 C 849.53125 547.320312 864.40625 516.59375 863.707031 479.375 C 863.476562 466.96875 861.515625 453.84375 857.820312 439.996094 C 845.449219 414.308594 829.707031 393.1875 810.589844 376.632812 C 779.035156 351.5 745.652344 337.253906 710.445312 333.890625 C 795.078125 263.683594 838.542969 206.433594 840.839844 162.136719 C 842.476562 143.085938 833.140625 123.53125 812.839844 103.46875 C 806.546875 98.390625 799.355469 94.328125 791.265625 91.277344 C 769.460938 85.4375 755.300781 83.152344 748.777344 84.421875 Z M 748.777344 84.421875 " fill-opacity="0.996" fill-rule="nonzero"/><path fill="#fc3c00" d="M 347.285156 542.761719 L 344.3125 542.789062 C 333.417969 542.886719 322.617188 544.546875 311.90625 547.773438 C 309.917969 548.554688 307.886719 549.492188 305.800781 550.589844 L 282.996094 563.507812 L 272.734375 570.515625 C 250.675781 587.046875 236.460938 608.195312 230.082031 633.957031 C 230.507812 634.472656 231.8125 634.617188 234 634.398438 C 251.351562 630.519531 266.46875 628.128906 279.351562 627.222656 C 293.679688 626.128906 308.429688 626.394531 323.597656 628.019531 C 338.710938 629.460938 355.890625 632.898438 375.132812 638.332031 C 382.675781 640.65625 389.6875 643.15625 396.171875 645.832031 C 401.332031 647.742188 408.613281 651.363281 418.011719 656.691406 C 418.570312 656.941406 419.242188 657.085938 420.027344 657.117188 C 422.558594 656.828125 424.808594 654.863281 426.773438 651.230469 C 426.855469 651.859375 429.863281 645.519531 435.796875 632.207031 C 440.519531 621.074219 446.753906 604.339844 454.496094 582.003906 L 458.90625 569.167969 C 459.039062 568.371094 458.886719 567.589844 458.449219 566.820312 C 457.136719 564.507812 453.257812 562.3125 446.820312 560.230469 C 424.691406 554.261719 411.878906 551.027344 408.386719 550.523438 C 384.519531 545.347656 364.152344 542.761719 347.285156 542.761719 Z M 347.285156 542.761719 " fill-opacity="0.996" fill-rule="nonzero"/><path fill="#fc3c00" d="M 303.753906 648.800781 L 302.671875 648.800781 C 273.578125 648.816406 254.164062 653.203125 244.425781 661.964844 C 226.367188 675.566406 214.296875 696.25 208.214844 724.015625 C 208.695312 724.824219 209.570312 725.230469 210.851562 725.230469 C 226.605469 723.710938 242.78125 723.535156 259.386719 724.703125 C 273.132812 725.65625 287.320312 728 301.953125 731.734375 C 311.921875 734.152344 324.050781 738.664062 338.335938 745.261719 C 344.679688 747.949219 356.382812 755.550781 373.449219 768.0625 C 374.304688 768.574219 375.136719 768.828125 375.941406 768.828125 C 383.882812 764.289062 392.207031 752.359375 400.914062 733.039062 C 407.488281 718.347656 413.28125 703.929688 418.296875 689.785156 C 419.675781 684.542969 419.492188 680.347656 417.742188 677.203125 C 416.871094 675.632812 415.605469 674.320312 413.949219 673.273438 C 404.75 668.511719 397.476562 665.039062 392.125 662.863281 C 388.894531 661.078125 379.636719 657.972656 364.339844 653.550781 C 358.269531 652.042969 352.269531 650.914062 346.339844 650.164062 L 337.5 649.316406 Z M 303.753906 648.800781 " fill-opacity="0.996" fill-rule="nonzero"/><g clip-path="url(#786be18220)"><path fill="#fc3c00" d="M 219.582031 744.40625 L 218.207031 744.429688 C 213.441406 744.074219 211.089844 746.003906 211.15625 750.214844 C 214.066406 772.855469 215.601562 787.320312 215.761719 793.601562 C 216.167969 806.347656 215.546875 816.945312 213.898438 825.398438 C 210.628906 844.085938 203.167969 871.039062 191.511719 906.246094 C 191.0625 907.9375 191.359375 908.894531 192.410156 909.121094 C 233.042969 892.273438 266.515625 874.957031 292.824219 857.179688 L 311.335938 843.746094 L 327.238281 830.132812 L 340.542969 816.332031 L 351.238281 802.351562 L 359.328125 788.191406 C 360.414062 783.6875 355.011719 777.808594 343.125 770.542969 C 334.816406 765.21875 322.53125 759.835938 306.265625 754.394531 C 300.1875 752.335938 291.960938 750.554688 281.597656 749.054688 C 260.585938 746.328125 239.914062 744.777344 219.582031 744.40625 Z M 219.582031 744.40625 " fill-opacity="0.996" fill-rule="nonzero"/></g><path fill="#fc3c00" d="M 271.898438 157.578125 L 266.941406 157.71875 C 265.363281 157.578125 260.191406 158.289062 251.425781 159.855469 C 244.308594 161.375 236.90625 163.652344 229.214844 166.691406 L 205.898438 176.433594 C 200.253906 179.425781 194.761719 182.96875 189.417969 187.058594 C 184.074219 191.152344 178.882812 195.796875 173.835938 200.996094 C 161.492188 214.953125 154.265625 223.992188 152.15625 228.109375 C 147.546875 235.269531 143.632812 243.027344 140.417969 251.378906 L 136.113281 264.351562 C 133.59375 273.296875 131.769531 282.839844 130.640625 292.972656 L 129.464844 308.625 C 128.871094 333.792969 130.511719 353.921875 134.394531 369.011719 C 137.949219 379.160156 144.066406 386.769531 152.738281 391.847656 C 160.3125 396.9375 172.652344 399.457031 189.765625 399.410156 C 221.578125 397.742188 254.203125 385.375 287.636719 362.3125 L 300.476562 353.152344 C 308.117188 346.660156 314.941406 340.074219 320.953125 333.394531 C 332.976562 320.03125 341.746094 306.285156 347.253906 292.160156 C 358.1875 262.519531 356.15625 233.632812 341.15625 205.5 C 333.734375 192.074219 323.144531 179.476562 309.386719 167.707031 C 304.402344 164.707031 299.167969 162.371094 293.675781 160.703125 C 283.894531 158.242188 276.632812 157.199219 271.898438 157.578125 Z M 271.898438 157.578125 " fill-opacity="0.996" fill-rule="nonzero"/><path fill="#fc3c00" d="M 199.632812 194.570312 C 172.003906 150.761719 145.78125 117.84375 120.953125 95.816406 C 110.28125 86.515625 99.78125 79.011719 89.453125 73.304688 C 82.421875 68.847656 66.058594 62.113281 40.363281 53.09375 C 35.613281 51.039062 31.820312 48.433594 28.988281 45.28125 C 24.457031 39.207031 25.023438 34.804688 30.683594 32.085938 C 38.25 29.753906 47.53125 30.265625 58.53125 33.613281 C 126.925781 53.683594 176.964844 108.210938 208.652344 197.199219 Z M 199.632812 194.570312 " fill-opacity="0.996" fill-rule="nonzero"/><path fill="#fc3c00" d="M 175.152344 214.277344 C 156.726562 194.378906 139.785156 181.222656 124.328125 174.808594 C 115.3125 170.710938 106.300781 167.351562 97.296875 164.738281 C 88.230469 161.917969 72.0625 158.796875 48.796875 155.375 C 44.039062 154.304688 40.773438 152.914062 39.003906 151.210938 C 33.769531 143.832031 37.882812 139.207031 51.34375 137.339844 C 63.550781 136.851562 78.792969 140.148438 97.066406 147.230469 C 135.539062 163.253906 164.554688 186.785156 184.109375 217.824219 Z M 175.152344 214.277344 " fill-opacity="0.996" fill-rule="nonzero"/><g fill="#fc3c00" fill-opacity="1"><g transform="translate(854.541809, 436.597784)"><g><path d="M 127.3125 -225.640625 C 149.425781 -225.640625 167.359375 -219.378906 181.109375 -206.859375 C 194.867188 -194.335938 201.75 -180.8125 201.75 -166.28125 C 201.75 -151.738281 199.546875 -140.332031 195.140625 -132.0625 C 190.734375 -123.789062 184.972656 -117.296875 177.859375 -112.578125 C 170.753906 -107.867188 160.554688 -104.203125 147.265625 -101.578125 C 127.003906 -97.867188 96.625 -96.015625 56.125 -96.015625 C 58.59375 -73.128906 65.429688 -55.035156 76.640625 -41.734375 C 87.847656 -28.441406 104.582031 -21.796875 126.84375 -21.796875 C 148.957031 -21.796875 164.648438 -30.066406 173.921875 -46.609375 C 186.453125 -41.503906 192.71875 -34.546875 192.71875 -25.734375 C 192.71875 -16.773438 185.523438 -9.472656 171.140625 -3.828125 C 156.765625 1.816406 140.6875 4.640625 122.90625 4.640625 C 93.226562 4.640625 68.878906 -4.75 49.859375 -23.53125 C 30.835938 -42.320312 21.328125 -70.65625 21.328125 -108.53125 C 21.328125 -146.40625 31.878906 -175.390625 52.984375 -195.484375 C 74.085938 -215.585938 98.863281 -225.640625 127.3125 -225.640625 Z M 125.453125 -199.4375 C 106.441406 -199.4375 90.207031 -192.941406 76.75 -179.953125 C 63.300781 -166.972656 56.269531 -146.875 55.65625 -119.65625 C 100.800781 -119.65625 130.867188 -122.984375 145.859375 -129.640625 C 152.203125 -132.578125 157.65625 -136.710938 162.21875 -142.046875 C 166.78125 -147.378906 169.0625 -154.601562 169.0625 -163.71875 C 169.0625 -172.6875 164.882812 -180.878906 156.53125 -188.296875 C 148.1875 -195.722656 137.828125 -199.4375 125.453125 -199.4375 Z M 125.453125 -199.4375 "/></g></g><g transform="translate(1077.867988, 436.597784)"><g><path d="M 127.3125 -225.640625 C 149.425781 -225.640625 167.359375 -219.378906 181.109375 -206.859375 C 194.867188 -194.335938 201.75 -180.8125 201.75 -166.28125 C 201.75 -151.738281 199.546875 -140.332031 195.140625 -132.0625 C 190.734375 -123.789062 184.972656 -117.296875 177.859375 -112.578125 C 170.753906 -107.867188 160.554688 -104.203125 147.265625 -101.578125 C 127.003906 -97.867188 96.625 -96.015625 56.125 -96.015625 C 58.59375 -73.128906 65.429688 -55.035156 76.640625 -41.734375 C 87.847656 -28.441406 104.582031 -21.796875 126.84375 -21.796875 C 148.957031 -21.796875 164.648438 -30.066406 173.921875 -46.609375 C 186.453125 -41.503906 192.71875 -34.546875 192.71875 -25.734375 C 192.71875 -16.773438 185.523438 -9.472656 171.140625 -3.828125 C 156.765625 1.816406 140.6875 4.640625 122.90625 4.640625 C 93.226562 4.640625 68.878906 -4.75 49.859375 -23.53125 C 30.835938 -42.320312 21.328125 -70.65625 21.328125 -108.53125 C 21.328125 -146.40625 31.878906 -175.390625 52.984375 -195.484375 C 74.085938 -215.585938 98.863281 -225.640625 127.3125 -225.640625 Z M 125.453125 -199.4375 C 106.441406 -199.4375 90.207031 -192.941406 76.75 -179.953125 C 63.300781 -166.972656 56.269531 -146.875 55.65625 -119.65625 C 100.800781 -119.65625 130.867188 -122.984375 145.859375 -129.640625 C 152.203125 -132.578125 157.65625 -136.710938 162.21875 -142.046875 C 166.78125 -147.378906 169.0625 -154.601562 169.0625 -163.71875 C 169.0625 -172.6875 164.882812 -180.878906 156.53125 -188.296875 C 148.1875 -195.722656 137.828125 -199.4375 125.453125 -199.4375 Z M 125.453125 -199.4375 "/></g></g></g><g transform="matrix(1, 0, 0, 1, 465, 631)"><g clip-path="url(#8c19a850ca)"><g fill="#a5157d" fill-opacity="1"><g transform="translate(1.177487, 184.186118)"><g><path d="M 34.515625 -117.765625 C 35.046875 -112.503906 35.3125 -99.910156 35.3125 -79.984375 L 50.5 -79.984375 C 61.28125 -79.984375 68.941406 -80.25 73.484375 -80.78125 C 74.078125 -79.59375 74.375 -77.457031 74.375 -74.375 C 74.375 -70.5625 73.695312 -67.945312 72.34375 -66.53125 C 71 -65.113281 68.847656 -64.335938 65.890625 -64.203125 C 62.472656 -64.078125 57.9375 -64.015625 52.28125 -64.015625 L 35.3125 -64.015625 C 35.3125 -37.253906 35.804688 -21.175781 36.796875 -15.78125 C 42.441406 -15.519531 47.078125 -15.390625 50.703125 -15.390625 C 72.265625 -15.390625 86.203125 -16.867188 92.515625 -19.828125 C 93.566406 -16.734375 94.09375 -13.148438 94.09375 -9.078125 C 94.09375 -5.984375 93.503906 -3.84375 92.328125 -2.65625 C 89.753906 -0.625 78.242188 0.390625 57.796875 0.390625 C 39.453125 0.390625 28.273438 0.257812 24.265625 0 C 20.054688 -0.132812 17.242188 -1.039062 15.828125 -2.71875 C 14.410156 -4.394531 13.703125 -7.335938 13.703125 -11.546875 C 13.703125 -14.109375 13.769531 -19.628906 13.90625 -28.109375 C 14.039062 -36.585938 14.109375 -43.097656 14.109375 -47.640625 L 14.109375 -86.890625 C 14.109375 -105.703125 13.1875 -120.992188 11.34375 -132.765625 C 26.007812 -133.941406 41 -134.53125 56.3125 -134.53125 C 76.238281 -134.53125 87.484375 -133.515625 90.046875 -131.484375 C 91.296875 -130.296875 91.921875 -128.15625 91.921875 -125.0625 C 91.921875 -120.988281 91.363281 -117.34375 90.25 -114.125 C 82.882812 -116.945312 71.179688 -118.359375 55.140625 -118.359375 C 48.691406 -118.359375 41.816406 -118.160156 34.515625 -117.765625 Z M 34.515625 -117.765625 "/></g></g></g><g fill="#a5157d" fill-opacity="1"><g transform="translate(126.658648, 184.186118)"><g><path d="M 11.34375 -10.75 C 13.1875 -22.976562 14.238281 -45.597656 14.5 -78.609375 C 14.5 -102.148438 13.644531 -120.460938 11.9375 -133.546875 C 20.414062 -135.128906 31.265625 -135.921875 44.484375 -135.921875 C 55.335938 -135.921875 65.117188 -134.785156 73.828125 -132.515625 C 82.535156 -130.242188 90.488281 -126.578125 97.6875 -121.515625 C 104.894531 -116.453125 110.488281 -109.347656 114.46875 -100.203125 C 118.445312 -91.066406 120.4375 -80.085938 120.4375 -67.265625 C 120.4375 -47.078125 114.84375 -30.488281 103.65625 -17.5 C 92.476562 -4.519531 76.503906 1.96875 55.734375 1.96875 C 36.597656 1.96875 21.800781 -2.269531 11.34375 -10.75 Z M 34.71875 -119.546875 C 35.25 -110.796875 35.515625 -100.503906 35.515625 -88.671875 C 35.515625 -60.785156 34.59375 -38.296875 32.75 -21.203125 C 39.1875 -16.472656 47.175781 -14.109375 56.71875 -14.109375 C 64.28125 -14.109375 70.820312 -15.632812 76.34375 -18.6875 C 81.863281 -21.75 86.070312 -25.796875 88.96875 -30.828125 C 91.863281 -35.859375 93.984375 -41.097656 95.328125 -46.546875 C 96.671875 -52.003906 97.34375 -57.695312 97.34375 -63.625 C 97.34375 -82.488281 92.9375 -96.671875 84.125 -106.171875 C 75.320312 -115.679688 62.703125 -120.4375 46.265625 -120.4375 C 43.691406 -120.4375 39.84375 -120.140625 34.71875 -119.546875 Z M 34.71875 -119.546875 "/></g></g></g><g fill="#a5157d" fill-opacity="1"><g transform="translate(281.827201, 184.186118)"><g><path d="M 12.328125 -132.953125 C 15.816406 -134.003906 19.796875 -134.53125 24.265625 -134.53125 C 29.390625 -134.53125 33.117188 -133.757812 35.453125 -132.21875 C 37.785156 -130.675781 38.953125 -128.03125 38.953125 -124.28125 C 38.953125 -118.757812 38.457031 -106.394531 37.46875 -87.1875 C 36.488281 -67.988281 36 -53.0625 36 -42.40625 C 36 -33.269531 38.347656 -26.515625 43.046875 -22.140625 C 47.753906 -17.765625 53.265625 -15.578125 59.578125 -15.578125 C 65.359375 -15.578125 71.453125 -17.054688 77.859375 -20.015625 C 84.273438 -22.984375 89.425781 -26.535156 93.3125 -30.671875 L 93.3125 -37.09375 C 93.3125 -40.375 93.34375 -46.222656 93.40625 -54.640625 C 93.46875 -63.054688 93.5 -73.875 93.5 -87.09375 C 93.5 -105.894531 93.039062 -121.445312 92.125 -133.75 C 96.269531 -134.269531 99.984375 -134.53125 103.265625 -134.53125 C 112.015625 -134.53125 116.390625 -131.96875 116.390625 -126.84375 C 116.390625 -126.582031 116.238281 -124.097656 115.9375 -119.390625 C 115.644531 -114.691406 115.363281 -107.328125 115.09375 -97.296875 C 114.832031 -87.273438 114.703125 -75.65625 114.703125 -62.4375 C 114.703125 -41.519531 114.914062 -27.523438 115.34375 -20.453125 C 115.78125 -13.390625 116.851562 -6.898438 118.5625 -0.984375 C 115.601562 0.0664062 111.425781 0.59375 106.03125 0.59375 C 101.164062 0.59375 97.796875 -0.242188 95.921875 -1.921875 C 94.046875 -3.597656 93.109375 -6.738281 93.109375 -11.34375 L 93.109375 -15.1875 C 87.847656 -10.0625 81.550781 -5.921875 74.21875 -2.765625 C 66.882812 0.390625 60.128906 1.96875 53.953125 1.96875 C 41.660156 1.96875 31.910156 -1.019531 24.703125 -7 C 17.503906 -12.988281 13.90625 -23.578125 13.90625 -38.765625 C 13.90625 -46.722656 14.21875 -57.503906 14.84375 -71.109375 C 15.46875 -84.722656 15.78125 -94.753906 15.78125 -101.203125 C 15.78125 -114.023438 14.628906 -124.609375 12.328125 -132.953125 Z M 12.328125 -132.953125 "/></g></g></g><g fill="#a5157d" fill-opacity="1"><g transform="translate(437.982071, 184.186118)"><g><path d="M 104.453125 -31.265625 C 107.410156 -29.816406 109.957031 -27.910156 112.09375 -25.546875 C 114.226562 -23.179688 115.296875 -20.71875 115.296875 -18.15625 C 115.296875 -12.625 111.367188 -7.882812 103.515625 -3.9375 C 95.660156 0 85.75 1.96875 73.78125 1.96875 C 54.113281 1.96875 38.3125 -4.390625 26.375 -17.109375 C 14.445312 -29.835938 8.484375 -46.492188 8.484375 -67.078125 C 8.484375 -88.640625 14.445312 -105.503906 26.375 -117.671875 C 38.3125 -129.835938 54.441406 -135.921875 74.765625 -135.921875 C 85.679688 -135.921875 94.835938 -133.796875 102.234375 -129.546875 C 109.628906 -125.304688 113.328125 -120.097656 113.328125 -113.921875 C 113.328125 -110.703125 112.007812 -107.875 109.375 -105.4375 C 106.75 -103.007812 102.738281 -101.398438 97.34375 -100.609375 C 95.3125 -106.921875 91.710938 -111.734375 86.546875 -115.046875 C 81.390625 -118.367188 75.984375 -120.03125 70.328125 -120.03125 C 58.878906 -120.03125 49.539062 -115.378906 42.3125 -106.078125 C 35.082031 -96.773438 31.46875 -85.054688 31.46875 -70.921875 C 31.46875 -54.609375 35.148438 -41.023438 42.515625 -30.171875 C 49.878906 -19.328125 60.203125 -13.90625 73.484375 -13.90625 C 79.597656 -13.90625 85.484375 -15.351562 91.140625 -18.25 C 96.796875 -21.144531 101.234375 -25.484375 104.453125 -31.265625 Z M 104.453125 -31.265625 "/></g></g></g><g fill="#a5157d" fill-opacity="1"><g transform="translate(587.232853, 184.186118)"><g><path d="M 75.546875 -55.328125 C 73.515625 -60.859375 71.523438 -66.613281 69.578125 -72.59375 C 67.640625 -78.570312 65.585938 -85 63.421875 -91.875 C 61.253906 -98.75 59.773438 -103.46875 58.984375 -106.03125 C 52.535156 -85.707031 46.617188 -68.875 41.234375 -55.53125 C 49.847656 -55.269531 56.421875 -55.140625 60.953125 -55.140625 C 67.992188 -55.140625 72.859375 -55.203125 75.546875 -55.328125 Z M 56.71875 -40.25 C 53.226562 -40.25 45.960938 -40.378906 34.921875 -40.640625 C 26.171875 -18.148438 20.773438 -3.191406 18.734375 4.234375 C 6.773438 2.921875 0.796875 0.160156 0.796875 -4.046875 C 0.796875 -5.953125 3.65625 -13.59375 9.375 -26.96875 C 15.09375 -40.351562 22.0625 -57.414062 30.28125 -78.15625 C 38.5 -98.90625 44.976562 -117.304688 49.71875 -133.359375 C 52.40625 -133.742188 55.890625 -133.9375 60.171875 -133.9375 C 63.722656 -133.9375 66.46875 -133.226562 68.40625 -131.8125 C 70.34375 -130.40625 72.035156 -127.53125 73.484375 -123.1875 C 83.867188 -90.90625 91.429688 -68.679688 96.171875 -56.515625 C 106.234375 -30.273438 113.828125 -12.09375 118.953125 -1.96875 C 113.828125 0.65625 109.519531 1.96875 106.03125 1.96875 C 100.375 1.96875 96.460938 0.160156 94.296875 -3.453125 C 92.710938 -7.597656 90.472656 -13.742188 87.578125 -21.890625 C 84.691406 -30.046875 82.425781 -36.296875 80.78125 -40.640625 C 67.5625 -40.378906 59.539062 -40.25 56.71875 -40.25 Z M 56.71875 -40.25 "/></g></g></g><g fill="#a5157d" fill-opacity="1"><g transform="translate(729.283746, 184.186118)"><g><path d="M 38.765625 -46.65625 L 38.765625 -87.09375 C 38.765625 -94.59375 38.632812 -104.6875 38.375 -117.375 C 19.238281 -117.375 6.644531 -117.109375 0.59375 -116.578125 C 0.195312 -118.160156 0 -120.5625 0 -123.78125 C 0 -127.46875 0.703125 -129.953125 2.109375 -131.234375 C 3.523438 -132.515625 5.78125 -133.222656 8.875 -133.359375 C 12.226562 -133.484375 20.117188 -133.546875 32.546875 -133.546875 L 56.3125 -133.546875 C 78.9375 -133.546875 92.613281 -133.742188 97.34375 -134.140625 C 97.738281 -132.492188 97.9375 -130.128906 97.9375 -127.046875 C 97.9375 -123.421875 97.226562 -120.96875 95.8125 -119.6875 C 94.40625 -118.40625 92.15625 -117.703125 89.0625 -117.578125 C 85.3125 -117.441406 75.941406 -117.375 60.953125 -117.375 C 60.296875 -102.84375 59.96875 -90.90625 59.96875 -81.5625 L 59.96875 -41.03125 C 59.96875 -23.082031 61.25 -9.863281 63.8125 -1.375 C 60.0625 -0.0625 55.890625 0.59375 51.296875 0.59375 C 46.296875 0.59375 42.890625 -0.273438 41.078125 -2.015625 C 39.273438 -3.765625 38.375 -6.742188 38.375 -10.953125 C 38.375 -13.054688 38.4375 -18.347656 38.5625 -26.828125 C 38.695312 -35.304688 38.765625 -41.914062 38.765625 -46.65625 Z M 38.765625 -46.65625 "/></g></g></g><g fill="#a5157d" fill-opacity="1"><g transform="translate(853.482751, 184.186118)"><g><path d="M 12.71875 -46.65625 L 12.71875 -87.09375 C 12.71875 -105.769531 12.257812 -121.253906 11.34375 -133.546875 C 15.351562 -134.203125 18.90625 -134.53125 22 -134.53125 C 31.007812 -134.53125 35.515625 -131.96875 35.515625 -126.84375 C 35.515625 -126.050781 35.378906 -123.335938 35.109375 -118.703125 C 34.847656 -114.066406 34.585938 -108.28125 34.328125 -101.34375 C 34.066406 -94.40625 33.9375 -87.8125 33.9375 -81.5625 L 33.9375 -41.03125 C 33.9375 -23.082031 35.21875 -9.863281 37.78125 -1.375 C 34.03125 -0.0625 29.851562 0.59375 25.25 0.59375 C 20.25 0.59375 16.84375 -0.273438 15.03125 -2.015625 C 13.226562 -3.765625 12.328125 -6.742188 12.328125 -10.953125 C 12.328125 -13.054688 12.390625 -18.347656 12.515625 -26.828125 C 12.648438 -35.304688 12.71875 -41.914062 12.71875 -46.65625 Z M 12.71875 -46.65625 "/></g></g></g><g fill="#a5157d" fill-opacity="1"><g transform="translate(928.860242, 184.186118)"><g><path d="M 72.09375 1.96875 C 52.695312 1.96875 37.242188 -4.273438 25.734375 -16.765625 C 14.234375 -29.265625 8.484375 -45.96875 8.484375 -66.875 C 8.484375 -87.976562 14.234375 -104.757812 25.734375 -117.21875 C 37.242188 -129.6875 52.695312 -135.921875 72.09375 -135.921875 C 91.757812 -135.921875 107.378906 -129.6875 118.953125 -117.21875 C 130.523438 -104.757812 136.3125 -87.976562 136.3125 -66.875 C 136.3125 -45.96875 130.488281 -29.265625 118.84375 -16.765625 C 107.207031 -4.273438 91.625 1.96875 72.09375 1.96875 Z M 113.328125 -63.421875 C 113.328125 -73.148438 112.078125 -82.070312 109.578125 -90.1875 C 107.078125 -98.3125 102.640625 -105.316406 96.265625 -111.203125 C 89.890625 -117.085938 81.96875 -120.03125 72.5 -120.03125 C 60 -120.03125 50.035156 -115.609375 42.609375 -106.765625 C 35.179688 -97.921875 31.46875 -86.5625 31.46875 -72.6875 C 31.46875 -62.632812 32.710938 -53.363281 35.203125 -44.875 C 37.703125 -36.394531 42.15625 -29.113281 48.5625 -23.03125 C 54.976562 -16.945312 62.890625 -13.90625 72.296875 -13.90625 C 85.378906 -13.90625 95.488281 -18.488281 102.625 -27.65625 C 109.757812 -36.832031 113.328125 -48.753906 113.328125 -63.421875 Z M 113.328125 -63.421875 "/></g></g></g><g fill="#a5157d" fill-opacity="1"><g transform="translate(1099.710822, 184.186118)"><g><path d="M 113.125 -0.203125 C 110.4375 0.328125 107.476562 0.59375 104.25 0.59375 C 97.476562 0.59375 92.976562 -1.210938 90.75 -4.828125 C 84.363281 -15.085938 74.675781 -31.59375 61.6875 -54.34375 C 48.707031 -77.09375 38.929688 -93.796875 32.359375 -104.453125 L 33.34375 -51.6875 C 33.738281 -24.53125 35.082031 -7.628906 37.375 -0.984375 C 34.414062 0.0664062 31.195312 0.59375 27.71875 0.59375 C 22.71875 0.59375 19.3125 -0.273438 17.5 -2.015625 C 15.695312 -3.765625 14.796875 -6.742188 14.796875 -10.953125 C 14.796875 -13.054688 14.859375 -18.347656 14.984375 -26.828125 C 15.117188 -35.304688 15.1875 -41.914062 15.1875 -46.65625 L 15.1875 -87.09375 C 15.1875 -109.582031 13.90625 -124.9375 11.34375 -133.15625 C 14.695312 -134.207031 18.804688 -134.734375 23.671875 -134.734375 C 29.847656 -134.734375 34.679688 -132.789062 38.171875 -128.90625 C 44.347656 -122.007812 53.632812 -108.367188 66.03125 -87.984375 C 78.425781 -67.597656 88.078125 -50.269531 94.984375 -36 C 93.867188 -51.320312 93.3125 -67.597656 93.3125 -84.828125 C 93.3125 -104.878906 92.847656 -121.25 91.921875 -133.9375 C 95.015625 -134.332031 97.78125 -134.53125 100.21875 -134.53125 C 109.09375 -134.53125 113.53125 -131.96875 113.53125 -126.84375 C 113.53125 -126.050781 113.394531 -123.335938 113.125 -118.703125 C 112.863281 -114.066406 112.566406 -108.28125 112.234375 -101.34375 C 111.910156 -94.40625 111.75 -87.8125 111.75 -81.5625 L 111.75 -47.046875 C 111.75 -28.046875 112.207031 -12.429688 113.125 -0.203125 Z M 113.125 -0.203125 "/></g></g></g></g></g></svg>