<svg xmlns="http://www.w3.org/2000/svg" xmlns:xlink="http://www.w3.org/1999/xlink" width="2400" zoomAndPan="magnify" viewBox="0 0 1800 929.999989" height="1240" preserveAspectRatio="xMidYMid meet" version="1.0"><defs><g/><clipPath id="fabb02fb58"><path d="M 191 744 L 360 744 L 360 909.34375 L 191 909.34375 Z M 191 744 " clip-rule="nonzero"/></clipPath><clipPath id="fa9c55929f"><rect x="0" width="464" y="0" height="629"/></clipPath><clipPath id="84f8ef6c80"><rect x="0" width="1189" y="0" height="258"/></clipPath></defs><rect x="-180" width="2160" fill="#ffffff" y="-92.999999" height="1115.999987" fill-opacity="1"/><rect x="-180" width="2160" fill="#fc3c00" y="-92.999999" height="1115.999987" fill-opacity="1"/><path fill="#ffffff" d="M 607.667969 249.421875 L 614.628906 249.644531 C 658.339844 252.855469 674.738281 280.839844 663.820312 333.589844 C 654.226562 334.429688 644.195312 335.746094 633.722656 337.542969 C 629.113281 337.839844 612.1875 341.628906 582.953125 348.917969 C 551.917969 357.898438 532.675781 363.871094 525.234375 366.832031 C 489.230469 379.066406 466.855469 387.207031 458.101562 391.25 C 426.738281 404.289062 394.441406 420.738281 361.207031 440.601562 C 319.261719 466.925781 293.8125 483.742188 284.863281 491.054688 C 306.734375 437.464844 357.753906 380.394531 437.925781 319.839844 C 503.328125 273.300781 559.910156 249.828125 607.667969 249.421875 M 748.777344 84.421875 L 738.269531 84.726562 C 701.183594 86.609375 657.429688 98.941406 607.007812 121.726562 C 552.3125 148.167969 502.703125 181.691406 458.171875 222.300781 C 409.820312 268.03125 361.582031 327.074219 313.464844 399.433594 C 300.160156 419.953125 288.699219 439.550781 279.074219 458.226562 C 271.964844 468.71875 261.660156 494.660156 248.171875 536.054688 C 249.097656 537.75 251.046875 537.722656 254.015625 535.96875 C 270.984375 521.554688 298.957031 503.640625 337.933594 482.222656 C 373.65625 464.964844 403.933594 451.867188 428.761719 442.933594 C 475.726562 425.488281 525.734375 417.976562 578.789062 420.390625 C 596.199219 423.128906 611.480469 426.695312 624.628906 431.082031 L 642.757812 438.277344 C 653.777344 443.488281 662.667969 449.519531 669.429688 456.378906 C 682.953125 470.089844 687.957031 487.089844 684.441406 507.386719 C 680.828125 516.6875 675.648438 524.953125 668.902344 532.1875 L 657.609375 542.261719 C 649.296875 548.460938 639.417969 553.625 627.976562 557.757812 C 607.355469 566.039062 575.9375 570.160156 533.726562 570.121094 C 613.300781 592.902344 676.675781 603.105469 723.847656 600.730469 C 762.472656 600.1875 794.21875 590.464844 819.089844 571.554688 C 849.53125 547.320312 864.40625 516.59375 863.707031 479.375 C 863.476562 466.96875 861.515625 453.84375 857.820312 439.996094 C 845.449219 414.308594 829.707031 393.1875 810.589844 376.632812 C 779.035156 351.5 745.652344 337.253906 710.445312 333.890625 C 795.078125 263.683594 838.542969 206.433594 840.839844 162.136719 C 842.476562 143.085938 833.140625 123.53125 812.839844 103.46875 C 806.546875 98.390625 799.355469 94.328125 791.265625 91.277344 C 769.460938 85.4375 755.300781 83.152344 748.777344 84.421875 Z M 748.777344 84.421875 " fill-opacity="0.996" fill-rule="nonzero"/><path fill="#ffffff" d="M 347.285156 542.761719 L 344.3125 542.789062 C 333.417969 542.886719 322.617188 544.546875 311.90625 547.773438 C 309.917969 548.554688 307.886719 549.492188 305.800781 550.589844 L 282.996094 563.507812 L 272.734375 570.515625 C 250.675781 587.046875 236.460938 608.195312 230.082031 633.957031 C 230.507812 634.472656 231.8125 634.617188 234 634.398438 C 251.351562 630.519531 266.46875 628.128906 279.351562 627.222656 C 293.679688 626.128906 308.429688 626.394531 323.597656 628.019531 C 338.710938 629.460938 355.890625 632.898438 375.132812 638.332031 C 382.675781 640.65625 389.6875 643.15625 396.171875 645.832031 C 401.332031 647.742188 408.613281 651.363281 418.011719 656.691406 C 418.570312 656.941406 419.242188 657.085938 420.027344 657.117188 C 422.558594 656.828125 424.808594 654.863281 426.773438 651.230469 C 426.855469 651.859375 429.863281 645.519531 435.796875 632.207031 C 440.519531 621.074219 446.753906 604.339844 454.496094 582.003906 L 458.90625 569.167969 C 459.039062 568.371094 458.886719 567.589844 458.449219 566.820312 C 457.136719 564.507812 453.257812 562.3125 446.820312 560.230469 C 424.691406 554.261719 411.878906 551.027344 408.386719 550.523438 C 384.519531 545.347656 364.152344 542.761719 347.285156 542.761719 Z M 347.285156 542.761719 " fill-opacity="0.996" fill-rule="nonzero"/><path fill="#ffffff" d="M 303.753906 648.800781 L 302.671875 648.800781 C 273.578125 648.816406 254.164062 653.203125 244.425781 661.964844 C 226.367188 675.566406 214.296875 696.25 208.214844 724.015625 C 208.695312 724.824219 209.570312 725.230469 210.851562 725.230469 C 226.605469 723.710938 242.78125 723.535156 259.386719 724.703125 C 273.132812 725.65625 287.320312 728 301.953125 731.734375 C 311.921875 734.152344 324.050781 738.664062 338.335938 745.261719 C 344.679688 747.949219 356.382812 755.550781 373.449219 768.0625 C 374.304688 768.574219 375.136719 768.828125 375.941406 768.828125 C 383.882812 764.289062 392.207031 752.359375 400.914062 733.039062 C 407.488281 718.347656 413.28125 703.929688 418.296875 689.785156 C 419.675781 684.542969 419.492188 680.347656 417.742188 677.203125 C 416.871094 675.632812 415.605469 674.320312 413.949219 673.273438 C 404.75 668.511719 397.476562 665.039062 392.125 662.863281 C 388.894531 661.078125 379.636719 657.972656 364.339844 653.550781 C 358.269531 652.042969 352.269531 650.914062 346.339844 650.164062 L 337.5 649.316406 Z M 303.753906 648.800781 " fill-opacity="0.996" fill-rule="nonzero"/><g clip-path="url(#fabb02fb58)"><path fill="#ffffff" d="M 219.582031 744.40625 L 218.207031 744.429688 C 213.441406 744.074219 211.089844 746.003906 211.15625 750.214844 C 214.066406 772.855469 215.601562 787.320312 215.761719 793.601562 C 216.167969 806.347656 215.546875 816.945312 213.898438 825.398438 C 210.628906 844.085938 203.167969 871.039062 191.511719 906.246094 C 191.0625 907.9375 191.359375 908.894531 192.410156 909.121094 C 233.042969 892.273438 266.515625 874.957031 292.824219 857.179688 L 311.335938 843.746094 L 327.238281 830.132812 L 340.542969 816.332031 L 351.238281 802.351562 L 359.328125 788.191406 C 360.414062 783.6875 355.011719 777.808594 343.125 770.542969 C 334.816406 765.21875 322.53125 759.835938 306.265625 754.394531 C 300.1875 752.335938 291.960938 750.554688 281.597656 749.054688 C 260.585938 746.328125 239.914062 744.777344 219.582031 744.40625 Z M 219.582031 744.40625 " fill-opacity="0.996" fill-rule="nonzero"/></g><path fill="#ffffff" d="M 271.898438 157.578125 L 266.941406 157.71875 C 265.363281 157.578125 260.191406 158.289062 251.425781 159.855469 C 244.308594 161.375 236.90625 163.652344 229.214844 166.691406 L 205.898438 176.433594 C 200.253906 179.425781 194.761719 182.96875 189.417969 187.058594 C 184.074219 191.152344 178.882812 195.796875 173.835938 200.996094 C 161.492188 214.953125 154.265625 223.992188 152.15625 228.109375 C 147.546875 235.269531 143.632812 243.027344 140.417969 251.378906 L 136.113281 264.351562 C 133.59375 273.296875 131.769531 282.839844 130.640625 292.972656 L 129.464844 308.625 C 128.871094 333.792969 130.511719 353.921875 134.394531 369.011719 C 137.949219 379.160156 144.066406 386.769531 152.738281 391.847656 C 160.3125 396.9375 172.652344 399.457031 189.765625 399.410156 C 221.578125 397.742188 254.203125 385.375 287.636719 362.3125 L 300.476562 353.152344 C 308.117188 346.660156 314.941406 340.074219 320.953125 333.394531 C 332.976562 320.03125 341.746094 306.285156 347.253906 292.160156 C 358.1875 262.519531 356.15625 233.632812 341.15625 205.5 C 333.734375 192.074219 323.144531 179.476562 309.386719 167.707031 C 304.402344 164.707031 299.167969 162.371094 293.675781 160.703125 C 283.894531 158.242188 276.632812 157.199219 271.898438 157.578125 Z M 271.898438 157.578125 " fill-opacity="0.996" fill-rule="nonzero"/><path fill="#ffffff" d="M 199.632812 194.570312 C 172.003906 150.761719 145.78125 117.84375 120.953125 95.816406 C 110.28125 86.515625 99.78125 79.011719 89.453125 73.304688 C 82.421875 68.847656 66.058594 62.113281 40.363281 53.09375 C 35.613281 51.039062 31.820312 48.433594 28.988281 45.28125 C 24.457031 39.207031 25.023438 34.804688 30.683594 32.085938 C 38.25 29.753906 47.53125 30.265625 58.53125 33.613281 C 126.925781 53.683594 176.964844 108.210938 208.652344 197.199219 Z M 199.632812 194.570312 " fill-opacity="0.996" fill-rule="nonzero"/><path fill="#ffffff" d="M 175.152344 214.277344 C 156.726562 194.378906 139.785156 181.222656 124.328125 174.808594 C 115.3125 170.710938 106.300781 167.351562 97.296875 164.738281 C 88.230469 161.917969 72.0625 158.796875 48.796875 155.375 C 44.039062 154.304688 40.773438 152.914062 39.003906 151.210938 C 33.769531 143.832031 37.882812 139.207031 51.34375 137.339844 C 63.550781 136.851562 78.792969 140.148438 97.066406 147.230469 C 135.539062 163.253906 164.554688 186.785156 184.109375 217.824219 Z M 175.152344 214.277344 " fill-opacity="0.996" fill-rule="nonzero"/><g transform="matrix(1, 0, 0, 1, 846, -0.000000000000015371)"><g clip-path="url(#fa9c55929f)"><g fill="#ffffff" fill-opacity="1"><g transform="translate(1.596327, 425.603213)"><g><path d="M 105.96875 -93.453125 C 97.3125 -93.453125 85.71875 -93.835938 71.1875 -94.609375 C 74.4375 -72.035156 81.664062 -55.53125 92.875 -45.09375 C 104.082031 -34.664062 117.957031 -29.453125 134.5 -29.453125 C 143 -29.453125 151.847656 -31.65625 161.046875 -36.0625 C 170.242188 -40.46875 177.007812 -46.84375 181.34375 -55.1875 C 196.957031 -46.84375 204.765625 -37.953125 204.765625 -28.515625 C 204.765625 -17.703125 197.304688 -9.472656 182.390625 -3.828125 C 167.472656 1.816406 150.8125 4.640625 132.40625 4.640625 C 102.726562 4.640625 76.253906 -5.132812 52.984375 -24.6875 C 29.722656 -44.25 18.09375 -72.582031 18.09375 -109.6875 C 18.09375 -148.644531 29.257812 -178.476562 51.59375 -199.1875 C 73.9375 -219.90625 100.257812 -230.265625 130.5625 -230.265625 C 154.988281 -230.265625 174.695312 -223.617188 189.6875 -210.328125 C 204.6875 -197.035156 212.1875 -181.191406 212.1875 -162.796875 C 212.1875 -147.953125 209.441406 -135.695312 203.953125 -126.03125 C 198.460938 -116.375 190.34375 -109.34375 179.59375 -104.9375 C 168.851562 -100.53125 157.914062 -97.515625 146.78125 -95.890625 C 135.65625 -94.265625 122.050781 -93.453125 105.96875 -93.453125 Z M 126.390625 -195.71875 C 111.546875 -195.71875 98.863281 -190 88.34375 -178.5625 C 77.832031 -167.125 71.648438 -149.113281 69.796875 -124.53125 C 90.046875 -124.53125 104.96875 -124.992188 114.5625 -125.921875 C 145.164062 -129.628906 160.46875 -141.609375 160.46875 -161.859375 C 160.46875 -171.140625 157.222656 -179.101562 150.734375 -185.75 C 144.242188 -192.394531 136.128906 -195.71875 126.390625 -195.71875 Z M 126.390625 -195.71875 "/></g></g></g><g fill="#ffffff" fill-opacity="1"><g transform="translate(231.849917, 425.603213)"><g><path d="M 105.96875 -93.453125 C 97.3125 -93.453125 85.71875 -93.835938 71.1875 -94.609375 C 74.4375 -72.035156 81.664062 -55.53125 92.875 -45.09375 C 104.082031 -34.664062 117.957031 -29.453125 134.5 -29.453125 C 143 -29.453125 151.847656 -31.65625 161.046875 -36.0625 C 170.242188 -40.46875 177.007812 -46.84375 181.34375 -55.1875 C 196.957031 -46.84375 204.765625 -37.953125 204.765625 -28.515625 C 204.765625 -17.703125 197.304688 -9.472656 182.390625 -3.828125 C 167.472656 1.816406 150.8125 4.640625 132.40625 4.640625 C 102.726562 4.640625 76.253906 -5.132812 52.984375 -24.6875 C 29.722656 -44.25 18.09375 -72.582031 18.09375 -109.6875 C 18.09375 -148.644531 29.257812 -178.476562 51.59375 -199.1875 C 73.9375 -219.90625 100.257812 -230.265625 130.5625 -230.265625 C 154.988281 -230.265625 174.695312 -223.617188 189.6875 -210.328125 C 204.6875 -197.035156 212.1875 -181.191406 212.1875 -162.796875 C 212.1875 -147.953125 209.441406 -135.695312 203.953125 -126.03125 C 198.460938 -116.375 190.34375 -109.34375 179.59375 -104.9375 C 168.851562 -100.53125 157.914062 -97.515625 146.78125 -95.890625 C 135.65625 -94.265625 122.050781 -93.453125 105.96875 -93.453125 Z M 126.390625 -195.71875 C 111.546875 -195.71875 98.863281 -190 88.34375 -178.5625 C 77.832031 -167.125 71.648438 -149.113281 69.796875 -124.53125 C 90.046875 -124.53125 104.96875 -124.992188 114.5625 -125.921875 C 145.164062 -129.628906 160.46875 -141.609375 160.46875 -161.859375 C 160.46875 -171.140625 157.222656 -179.101562 150.734375 -185.75 C 144.242188 -192.394531 136.128906 -195.71875 126.390625 -195.71875 Z M 126.390625 -195.71875 "/></g></g></g></g></g><g transform="matrix(1, 0, 0, 1, 496, 640)"><g clip-path="url(#84f8ef6c80)"><g fill="#000000" fill-opacity="1"><g transform="translate(0.703057, 175.67542)"><g><path d="M 32.796875 -111.890625 C 33.296875 -106.890625 33.546875 -94.925781 33.546875 -76 L 47.984375 -76 C 58.222656 -76 65.5 -76.25 69.8125 -76.75 C 70.375 -75.625 70.65625 -73.59375 70.65625 -70.65625 C 70.65625 -67.03125 70.015625 -64.546875 68.734375 -63.203125 C 67.453125 -61.859375 65.40625 -61.125 62.59375 -61 C 59.34375 -60.875 55.03125 -60.8125 49.65625 -60.8125 L 33.546875 -60.8125 C 33.546875 -35.382812 34.015625 -20.113281 34.953125 -15 C 40.328125 -14.75 44.726562 -14.625 48.15625 -14.625 C 68.65625 -14.625 81.898438 -16.023438 87.890625 -18.828125 C 88.890625 -15.898438 89.390625 -12.5 89.390625 -8.625 C 89.390625 -5.6875 88.828125 -3.65625 87.703125 -2.53125 C 85.265625 -0.59375 74.332031 0.375 54.90625 0.375 C 37.476562 0.375 26.859375 0.25 23.046875 0 C 19.046875 -0.125 16.375 -0.984375 15.03125 -2.578125 C 13.695312 -4.171875 13.03125 -6.96875 13.03125 -10.96875 C 13.03125 -13.40625 13.09375 -18.648438 13.21875 -26.703125 C 13.34375 -34.765625 13.40625 -40.953125 13.40625 -45.265625 L 13.40625 -82.546875 C 13.40625 -100.421875 12.53125 -114.945312 10.78125 -126.125 C 24.707031 -127.25 38.945312 -127.8125 53.5 -127.8125 C 72.425781 -127.8125 83.109375 -126.84375 85.546875 -124.90625 C 86.734375 -123.78125 87.328125 -121.75 87.328125 -118.8125 C 87.328125 -114.9375 86.796875 -111.472656 85.734375 -108.421875 C 78.742188 -111.097656 67.625 -112.4375 52.375 -112.4375 C 46.257812 -112.4375 39.734375 -112.253906 32.796875 -111.890625 Z M 32.796875 -111.890625 "/></g></g></g><g fill="#000000" fill-opacity="1"><g transform="translate(119.921131, 175.67542)"><g><path d="M 10.78125 -10.21875 C 12.53125 -21.832031 13.53125 -43.320312 13.78125 -74.6875 C 13.78125 -97.050781 12.96875 -114.445312 11.34375 -126.875 C 19.394531 -128.375 29.703125 -129.125 42.265625 -129.125 C 52.566406 -129.125 61.851562 -128.046875 70.125 -125.890625 C 78.40625 -123.734375 85.96875 -120.25 92.8125 -115.4375 C 99.65625 -110.632812 104.960938 -103.890625 108.734375 -95.203125 C 112.515625 -86.515625 114.40625 -76.082031 114.40625 -63.90625 C 114.40625 -44.726562 109.09375 -28.96875 98.46875 -16.625 C 87.851562 -4.289062 72.675781 1.875 52.9375 1.875 C 34.757812 1.875 20.707031 -2.15625 10.78125 -10.21875 Z M 32.984375 -113.5625 C 33.484375 -105.257812 33.734375 -95.484375 33.734375 -84.234375 C 33.734375 -57.753906 32.859375 -36.390625 31.109375 -20.140625 C 37.234375 -15.648438 44.820312 -13.40625 53.875 -13.40625 C 61.0625 -13.40625 67.273438 -14.851562 72.515625 -17.75 C 77.765625 -20.65625 81.765625 -24.5 84.515625 -29.28125 C 87.265625 -34.0625 89.28125 -39.039062 90.5625 -44.21875 C 91.84375 -49.40625 92.484375 -54.8125 92.484375 -60.4375 C 92.484375 -78.363281 88.296875 -91.835938 79.921875 -100.859375 C 71.554688 -109.890625 59.566406 -114.40625 43.953125 -114.40625 C 41.515625 -114.40625 37.859375 -114.125 32.984375 -113.5625 Z M 32.984375 -113.5625 "/></g></g></g><g fill="#000000" fill-opacity="1"><g transform="translate(267.344996, 175.67542)"><g><path d="M 11.71875 -126.3125 C 15.019531 -127.3125 18.796875 -127.8125 23.046875 -127.8125 C 27.921875 -127.8125 31.46875 -127.078125 33.6875 -125.609375 C 35.90625 -124.140625 37.015625 -121.625 37.015625 -118.0625 C 37.015625 -112.820312 36.546875 -101.078125 35.609375 -82.828125 C 34.671875 -64.585938 34.203125 -50.410156 34.203125 -40.296875 C 34.203125 -31.609375 36.4375 -25.1875 40.90625 -21.03125 C 45.375 -16.882812 50.601562 -14.8125 56.59375 -14.8125 C 62.09375 -14.8125 67.882812 -16.210938 73.96875 -19.015625 C 80.0625 -21.828125 84.953125 -25.203125 88.640625 -29.140625 L 88.640625 -35.234375 C 88.640625 -38.359375 88.671875 -43.914062 88.734375 -51.90625 C 88.796875 -59.90625 88.828125 -70.179688 88.828125 -82.734375 C 88.828125 -100.609375 88.390625 -115.382812 87.515625 -127.0625 C 91.453125 -127.5625 94.984375 -127.8125 98.109375 -127.8125 C 106.421875 -127.8125 110.578125 -125.375 110.578125 -120.5 C 110.578125 -120.25 110.4375 -117.890625 110.15625 -113.421875 C 109.875 -108.960938 109.609375 -101.96875 109.359375 -92.4375 C 109.109375 -82.914062 108.984375 -71.875 108.984375 -59.3125 C 108.984375 -39.445312 109.1875 -26.15625 109.59375 -19.4375 C 110 -12.726562 111.007812 -6.5625 112.625 -0.9375 C 109.820312 0.0625 105.859375 0.5625 100.734375 0.5625 C 96.109375 0.5625 92.90625 -0.234375 91.125 -1.828125 C 89.34375 -3.421875 88.453125 -6.40625 88.453125 -10.78125 L 88.453125 -14.4375 C 83.453125 -9.5625 77.46875 -5.625 70.5 -2.625 C 63.539062 0.375 57.125 1.875 51.25 1.875 C 39.570312 1.875 30.3125 -0.96875 23.46875 -6.65625 C 16.632812 -12.34375 13.21875 -22.398438 13.21875 -36.828125 C 13.21875 -44.378906 13.515625 -54.617188 14.109375 -67.546875 C 14.703125 -80.484375 15 -90.015625 15 -96.140625 C 15 -108.316406 13.90625 -118.375 11.71875 -126.3125 Z M 11.71875 -126.3125 "/></g></g></g><g fill="#000000" fill-opacity="1"><g transform="translate(415.705919, 175.67542)"><g><path d="M 99.234375 -29.703125 C 102.046875 -28.328125 104.46875 -26.515625 106.5 -24.265625 C 108.53125 -22.015625 109.546875 -19.671875 109.546875 -17.234375 C 109.546875 -11.992188 105.8125 -7.5 98.34375 -3.75 C 90.875 0 81.457031 1.875 70.09375 1.875 C 51.414062 1.875 36.40625 -4.164062 25.0625 -16.25 C 13.726562 -28.34375 8.0625 -44.164062 8.0625 -63.71875 C 8.0625 -84.207031 13.726562 -100.226562 25.0625 -111.78125 C 36.40625 -123.34375 51.726562 -129.125 71.03125 -129.125 C 81.394531 -129.125 90.09375 -127.109375 97.125 -123.078125 C 104.15625 -119.046875 107.671875 -114.097656 107.671875 -108.234375 C 107.671875 -105.171875 106.421875 -102.484375 103.921875 -100.171875 C 101.421875 -97.859375 97.609375 -96.328125 92.484375 -95.578125 C 90.546875 -101.578125 87.125 -106.148438 82.21875 -109.296875 C 77.320312 -112.453125 72.1875 -114.03125 66.8125 -114.03125 C 55.9375 -114.03125 47.0625 -109.609375 40.1875 -100.765625 C 33.320312 -91.929688 29.890625 -80.800781 29.890625 -67.375 C 29.890625 -51.882812 33.382812 -38.984375 40.375 -28.671875 C 47.375 -18.367188 57.1875 -13.21875 69.8125 -13.21875 C 75.625 -13.21875 81.210938 -14.585938 86.578125 -17.328125 C 91.953125 -20.078125 96.171875 -24.203125 99.234375 -29.703125 Z M 99.234375 -29.703125 "/></g></g></g><g fill="#000000" fill-opacity="1"><g transform="translate(557.50739, 175.67542)"><g><path d="M 71.78125 -52.5625 C 69.84375 -57.8125 67.953125 -63.28125 66.109375 -68.96875 C 64.265625 -74.65625 62.3125 -80.757812 60.25 -87.28125 C 58.1875 -93.8125 56.78125 -98.296875 56.03125 -100.734375 C 49.914062 -81.429688 44.296875 -65.4375 39.171875 -52.75 C 47.347656 -52.5 53.59375 -52.375 57.90625 -52.375 C 64.59375 -52.375 69.21875 -52.4375 71.78125 -52.5625 Z M 53.875 -38.234375 C 50.5625 -38.234375 43.660156 -38.359375 33.171875 -38.609375 C 24.859375 -17.242188 19.734375 -3.03125 17.796875 4.03125 C 6.429688 2.78125 0.75 0.15625 0.75 -3.84375 C 0.75 -5.65625 3.460938 -12.914062 8.890625 -25.625 C 14.328125 -38.34375 20.953125 -54.554688 28.765625 -74.265625 C 36.578125 -93.972656 42.734375 -111.445312 47.234375 -126.6875 C 49.785156 -127.0625 53.09375 -127.25 57.15625 -127.25 C 60.53125 -127.25 63.140625 -126.578125 64.984375 -125.234375 C 66.828125 -123.890625 68.4375 -121.15625 69.8125 -117.03125 C 79.675781 -86.363281 86.859375 -65.25 91.359375 -53.6875 C 100.921875 -28.757812 108.132812 -11.488281 113 -1.875 C 108.132812 0.625 104.046875 1.875 100.734375 1.875 C 95.359375 1.875 91.640625 0.15625 89.578125 -3.28125 C 88.078125 -7.21875 85.953125 -13.054688 83.203125 -20.796875 C 80.460938 -28.546875 78.3125 -34.484375 76.75 -38.609375 C 64.1875 -38.359375 56.5625 -38.234375 53.875 -38.234375 Z M 53.875 -38.234375 "/></g></g></g><g fill="#000000" fill-opacity="1"><g transform="translate(692.468202, 175.67542)"><g><path d="M 36.828125 -44.328125 L 36.828125 -82.734375 C 36.828125 -89.859375 36.703125 -99.453125 36.453125 -111.515625 C 18.273438 -111.515625 6.3125 -111.265625 0.5625 -110.765625 C 0.1875 -112.253906 0 -114.53125 0 -117.59375 C 0 -121.09375 0.671875 -123.453125 2.015625 -124.671875 C 3.359375 -125.890625 5.5 -126.5625 8.4375 -126.6875 C 11.625 -126.8125 19.117188 -126.875 30.921875 -126.875 L 53.5 -126.875 C 74.988281 -126.875 87.984375 -127.0625 92.484375 -127.4375 C 92.859375 -125.875 93.046875 -123.625 93.046875 -120.6875 C 93.046875 -117.25 92.375 -114.921875 91.03125 -113.703125 C 89.6875 -112.492188 87.546875 -111.828125 84.609375 -111.703125 C 81.054688 -111.578125 72.15625 -111.515625 57.90625 -111.515625 C 57.28125 -97.703125 56.96875 -86.363281 56.96875 -77.5 L 56.96875 -38.984375 C 56.96875 -21.929688 58.1875 -9.375 60.625 -1.3125 C 57.0625 -0.0625 53.09375 0.5625 48.71875 0.5625 C 43.976562 0.5625 40.75 -0.265625 39.03125 -1.921875 C 37.3125 -3.578125 36.453125 -6.40625 36.453125 -10.40625 C 36.453125 -12.40625 36.515625 -17.429688 36.640625 -25.484375 C 36.765625 -33.546875 36.828125 -39.828125 36.828125 -44.328125 Z M 36.828125 -44.328125 "/></g></g></g><g fill="#000000" fill-opacity="1"><g transform="translate(810.468128, 175.67542)"><g><path d="M 12.09375 -44.328125 L 12.09375 -82.734375 C 12.09375 -100.484375 11.65625 -115.195312 10.78125 -126.875 C 14.582031 -127.5 17.953125 -127.8125 20.890625 -127.8125 C 29.453125 -127.8125 33.734375 -125.375 33.734375 -120.5 C 33.734375 -119.75 33.609375 -117.171875 33.359375 -112.765625 C 33.109375 -108.367188 32.859375 -102.875 32.609375 -96.28125 C 32.359375 -89.6875 32.234375 -83.425781 32.234375 -77.5 L 32.234375 -38.984375 C 32.234375 -21.929688 33.453125 -9.375 35.890625 -1.3125 C 32.328125 -0.0625 28.359375 0.5625 23.984375 0.5625 C 19.234375 0.5625 16 -0.265625 14.28125 -1.921875 C 12.570312 -3.578125 11.71875 -6.40625 11.71875 -10.40625 C 11.71875 -12.40625 11.78125 -17.429688 11.90625 -25.484375 C 12.03125 -33.546875 12.09375 -39.828125 12.09375 -44.328125 Z M 12.09375 -44.328125 "/></g></g></g><g fill="#000000" fill-opacity="1"><g transform="translate(882.083035, 175.67542)"><g><path d="M 68.5 1.875 C 50.070312 1.875 35.390625 -4.054688 24.453125 -15.921875 C 13.523438 -27.796875 8.0625 -43.664062 8.0625 -63.53125 C 8.0625 -83.582031 13.523438 -99.523438 24.453125 -111.359375 C 35.390625 -123.203125 50.070312 -129.125 68.5 -129.125 C 87.175781 -129.125 102.007812 -123.203125 113 -111.359375 C 124 -99.523438 129.5 -83.582031 129.5 -63.53125 C 129.5 -43.664062 123.96875 -27.796875 112.90625 -15.921875 C 101.851562 -4.054688 87.050781 1.875 68.5 1.875 Z M 107.671875 -60.25 C 107.671875 -69.5 106.484375 -77.976562 104.109375 -85.6875 C 101.734375 -93.40625 97.515625 -100.054688 91.453125 -105.640625 C 85.390625 -111.234375 77.863281 -114.03125 68.875 -114.03125 C 57 -114.03125 47.53125 -109.828125 40.46875 -101.421875 C 33.414062 -93.023438 29.890625 -82.238281 29.890625 -69.0625 C 29.890625 -59.5 31.078125 -50.6875 33.453125 -42.625 C 35.828125 -34.570312 40.054688 -27.65625 46.140625 -21.875 C 52.234375 -16.101562 59.75 -13.21875 68.6875 -13.21875 C 81.113281 -13.21875 90.71875 -17.570312 97.5 -26.28125 C 104.28125 -35 107.671875 -46.320312 107.671875 -60.25 Z M 107.671875 -60.25 "/></g></g></g><g fill="#000000" fill-opacity="1"><g transform="translate(1044.406292, 175.67542)"><g><path d="M 107.484375 -0.1875 C 104.921875 0.3125 102.109375 0.5625 99.046875 0.5625 C 92.609375 0.5625 88.328125 -1.15625 86.203125 -4.59375 C 80.148438 -14.332031 70.953125 -30.007812 58.609375 -51.625 C 46.273438 -73.238281 36.984375 -89.109375 30.734375 -99.234375 L 31.671875 -49.09375 C 32.046875 -23.300781 33.328125 -7.25 35.515625 -0.9375 C 32.703125 0.0625 29.640625 0.5625 26.328125 0.5625 C 21.578125 0.5625 18.34375 -0.265625 16.625 -1.921875 C 14.914062 -3.578125 14.0625 -6.40625 14.0625 -10.40625 C 14.0625 -12.40625 14.125 -17.429688 14.25 -25.484375 C 14.375 -33.546875 14.4375 -39.828125 14.4375 -44.328125 L 14.4375 -82.734375 C 14.4375 -104.097656 13.21875 -118.6875 10.78125 -126.5 C 13.96875 -127.5 17.867188 -128 22.484375 -128 C 28.359375 -128 32.953125 -126.15625 36.265625 -122.46875 C 42.140625 -115.90625 50.960938 -102.941406 62.734375 -83.578125 C 74.503906 -64.210938 83.671875 -47.753906 90.234375 -34.203125 C 89.171875 -48.753906 88.640625 -64.210938 88.640625 -80.578125 C 88.640625 -99.640625 88.203125 -115.195312 87.328125 -127.25 C 90.265625 -127.625 92.890625 -127.8125 95.203125 -127.8125 C 103.640625 -127.8125 107.859375 -125.375 107.859375 -120.5 C 107.859375 -119.75 107.734375 -117.171875 107.484375 -112.765625 C 107.234375 -108.367188 106.953125 -102.875 106.640625 -96.28125 C 106.328125 -89.6875 106.171875 -83.425781 106.171875 -77.5 L 106.171875 -44.703125 C 106.171875 -26.640625 106.609375 -11.800781 107.484375 -0.1875 Z M 107.484375 -0.1875 "/></g></g></g></g></g></svg>